<svg width="76" height="78" viewBox="0 0 76 78" xmlns="http://www.w3.org/2000/svg"><title>envelope</title><defs><linearGradient x1="0%" y1="12.705%" y2="96.538%" id="a"><stop stop-color="#00C8D7" offset="0%"/><stop stop-color="#0A84FF" offset="100%"/></linearGradient><linearGradient x1="-44.692%" y1="-54.343%" x2="143.391%" y2="129.834%" id="b"><stop stop-color="#00C8D7" offset="0%"/><stop stop-color="#0A84FF" offset="100%"/></linearGradient><linearGradient x1="42.438%" y1="-1576.339%" x2="57.566%" y2="2059.012%" id="c"><stop stop-color="#00C8D7" offset="0%"/><stop stop-color="#0A84FF" offset="100%"/></linearGradient><linearGradient x1="49.998%" y1="-2040.158%" x2="50.002%" y2="1683.524%" id="d"><stop stop-color="#00C8D7" offset="0%"/><stop stop-color="#0A84FF" offset="100%"/></linearGradient><linearGradient x1="43.687%" y1="-76.313%" x2="55.713%" y2="100%" id="e"><stop stop-color="#00C8D7" offset="0%"/><stop stop-color="#0A84FF" offset="100%"/></linearGradient></defs><g fill="none" fill-rule="evenodd"><path d="M69.864 26.907A7.972 7.972 0 0 1 72 32.349v32.954a8 8 0 0 1-8 8H8a8 8 0 0 1-8-8V32.349c0-1.866.639-3.583 1.71-4.943a5 5 0 0 1 1.308-1.622l30.31-24.662a5 5 0 0 1 6.384.059l29.23 24.7c.362.306.67.652.922 1.026zM24.5 52.5L2.068 70.258 24.5 52.5zm22.602.339l22.432 17.758L47.102 52.84v-.001z" stroke="url(#a)" stroke-width="3" stroke-linecap="round" stroke-linejoin="round" transform="translate(2 2)"/><path d="M53.923 22.663a5.245 5.245 0 0 1 1.536 3.71v21.064l-.516.394C45.65 54.923 39.985 59.082 38.126 60.17l-.22.129-.253.037a5.95 5.95 0 0 1-.53.047c-.388.019-.879.022-1.407.008a28.663 28.663 0 0 1-1.343-.065 10.41 10.41 0 0 1-.338-.03l-.299-.033-.255-.16c-1.609-1.009-7.267-5.126-16.839-12.25l-.529-.393V26.373a5.246 5.246 0 0 1 5.248-5.247h28.852c1.391 0 2.726.553 3.71 1.537zm-1.087 3.71a2.623 2.623 0 0 0-2.623-2.623H21.36a2.622 2.622 0 0 0-2.623 2.623v19.77c8.694 6.467 14.075 10.387 15.877 11.57.334.025.755.045 1.17.056.467.012.894.01 1.207-.006 1.98-1.199 7.363-5.156 15.845-11.624V26.373z" fill="url(#b)" fill-rule="nonzero" transform="translate(2 2)"/><path d="M27.115 39.127h18m-18-8h18" stroke="url(#c)" stroke-width="3" stroke-linecap="round" stroke-linejoin="round" transform="translate(2 2)"/><path d="M27.115 47h18" stroke="url(#d)" stroke-width="3" stroke-linecap="round" stroke-linejoin="round" transform="translate(2 2)"/><path d="M71.95 32c.033.297.05.6.05.906V65.86a8 8 0 0 1-8 8H8a8 8 0 0 1-8-8V32.906c0-.281.014-.559.043-.832a4.982 4.982 0 0 0 1.926 3.085l30.863 22.996a5 5 0 0 0 5.982-.005L70.1 34.756A5 5 0 0 0 71.949 32h.001z" stroke="url(#e)" stroke-width="3" stroke-linecap="round" stroke-linejoin="round" transform="translate(2 2)"/></g></svg>
