<svg width="15" height="13" viewBox="0 0 15 13" xmlns="http://www.w3.org/2000/svg"><title>Combined Shape</title><defs><filter x="-5.3%" y="-13.2%" width="110.6%" height="136.8%" filterUnits="objectBoundingBox" id="a"><feOffset dy="1" in="SourceAlpha" result="shadowOffsetOuter1"/><feGaussianBlur stdDeviation="1" in="shadowOffsetOuter1" result="shadowBlurOuter1"/><feColorMatrix values="0 0 0 0 0 0 0 0 0 0 0 0 0 0 0 0 0 0 0.2 0" in="shadowBlurOuter1" result="shadowMatrixOuter1"/><feMerge><feMergeNode in="shadowMatrixOuter1"/><feMergeNode in="SourceGraphic"/></feMerge></filter></defs><path d="M12.274 13.193a5.957 5.957 0 0 1-2.98.778C6.37 13.97 4 11.963 4 9.485 4 7.008 6.37 5 9.294 5c2.924 0 5.294 2.008 5.294 4.485 0 .843-.274 1.632-.751 2.305l.577 2.21-2.14-.807zm-5.983-2.96a.756.756 0 0 0 .763-.748.756.756 0 0 0-.763-.747.756.756 0 0 0-.764.747c0 .413.342.748.764.748zm3.054 0a.756.756 0 0 0 .764-.748.756.756 0 0 0-.764-.747.756.756 0 0 0-.764.747c0 .413.342.748.764.748zm3.054 0a.756.756 0 0 0 .764-.748.756.756 0 0 0-.764-.747.756.756 0 0 0-.763.747c0 .413.342.748.763.748z" filter="url(#a)" transform="translate(-2 -4)" fill="#FFF" fill-rule="evenodd"/></svg>