<svg xmlns="http://www.w3.org/2000/svg" width="16" height="16" viewBox="0 0 16 16">
  <path d="M7.5083133,10.0176016 L7.5083133,8.4679988 L5.00956715,8.4679988 C5.03661912,9.12715806 5.12012602,9.75224996 5.24841175,10.32876 C5.95011723,10.1571743 6.71082435,10.0492225 7.5083133,10.0176016 L7.5083133,10.0176016 Z M8.5083133,10.0182722 C9.29974936,10.0507265 10.0547609,10.1583671 10.7515883,10.32876 C10.879874,9.75224996 10.9633809,9.12715806 10.9904329,8.4679988 L8.5083133,8.4679988 L8.5083133,10.0182722 L8.5083133,10.0182722 Z M7.5083133,5.99028557 C6.71019487,5.95863976 5.94891636,5.85054248 5.24675023,5.67872083 C5.12355144,6.23445195 5.04194808,6.83520216 5.01237586,7.4679988 L7.5083133,7.4679988 L7.5083133,5.99028557 L7.5083133,5.99028557 Z M8.5083133,5.98961505 L8.5083133,7.4679988 L10.9876241,7.4679988 C10.9580519,6.83520216 10.8764486,6.23445195 10.7532498,5.67872083 C10.0559611,5.84934895 9.30037844,5.95713493 8.5083133,5.98961505 L8.5083133,5.98961505 Z M7.5083133,15.9851374 C3.47376408,15.7405151 0.246375667,12.5056978 0.0134613068,8.4679988 L0,8.4679988 L0,7.4679988 L0.0174081917,7.4679988 C0.291202838,3.29775196 3.7604858,0 8,0 C12.2395142,0 15.7087972,3.29775196 15.9825918,7.4679988 L16,7.4679988 L16,8.4679988 L15.9865387,8.4679988 C15.7539444,12.5001497 12.5350995,15.7316238 8.5083133,15.984112 L8.5083133,16.0251402 L7.5083133,16.0251402 L7.5083133,15.9851374 L7.5083133,15.9851374 Z M7.5083133,13.9087404 L7.5083133,11.0136318 C6.80766716,11.0441862 6.13632579,11.1394023 5.51746785,11.2885637 C5.98654598,12.6545993 6.72294698,13.6184717 7.5083133,13.9087404 L7.5083133,13.9087404 Z M8.5083133,13.9024919 C9.28743865,13.6048415 10.0167676,12.6449526 10.482534,11.2885584 C9.86854058,11.1405682 9.20292068,11.0456925 8.5083133,11.0143686 L8.5083133,13.9024919 L8.5083133,13.9024919 Z M7.5083133,2.09125957 C6.72155163,2.38204398 5.98392944,3.34882786 5.51497017,4.71872117 C6.13451931,4.86822862 6.80672446,4.96365993 7.5083133,4.99425541 L7.5083133,2.09125957 L7.5083133,2.09125957 Z M8.5083133,2.09750806 L8.5083133,4.99351862 C9.20386266,4.9621522 9.87034586,4.86706159 10.4850316,4.71872641 C10.0193774,3.35848459 9.28883274,2.39569112 8.5083133,2.09750806 L8.5083133,2.09750806 Z M2.01798245,8.4679988 C2.09631896,9.48338112 2.42740225,10.4279449 2.94841186,11.2388697 C3.34759232,11.0011403 3.79766622,10.7915304 4.28862541,10.615759 C4.13412807,9.94506867 4.03727244,9.22288387 4.00879806,8.4679988 L2.01798245,8.4679988 L2.01798245,8.4679988 Z M2.02326266,7.4679988 L4.01137923,7.4679988 C4.04268283,6.73901346 4.13778749,6.04117271 4.28694954,5.39152801 C3.79514076,5.21534189 3.34438589,5.00519375 2.94475083,4.76683553 C2.43679569,5.5594074 2.11012785,6.47930028 2.02326266,7.4679988 L2.02326266,7.4679988 Z M13.9820175,8.4679988 L11.9912019,8.4679988 C11.9627276,9.22288387 11.8658719,9.94506867 11.7113746,10.615759 C12.2023338,10.7915304 12.6524077,11.0011403 13.0515881,11.2388697 C13.5725977,10.4279449 13.903681,9.48338112 13.9820175,8.4679988 L13.9820175,8.4679988 Z M13.9767373,7.4679988 C13.8898721,6.47930028 13.5632043,5.5594074 13.0552492,4.76683553 C12.6556141,5.00519375 12.2048592,5.21534189 11.7130505,5.39152801 C11.8622125,6.04117271 11.9573172,6.73901346 11.9886208,7.4679988 L13.9767373,7.4679988 L13.9767373,7.4679988 Z M3.56136705,12.0372066 C4.09990803,12.6289497 4.75517151,13.1125807 5.49076989,13.451712 C5.12092664,12.9297362 4.80528978,12.2948589 4.5609594,11.5770052 C4.19775386,11.7108014 3.86239264,11.8652022 3.56136705,12.0372066 L3.56136705,12.0372066 Z M12.4386179,12.0372231 C12.1375724,11.8652008 11.8022167,11.7107982 11.43904,11.577007 C11.1947097,12.29486 10.879073,12.9297367 10.5092301,13.451712 C11.2448217,13.1125839 11.9000798,12.6289587 12.4386179,12.0372231 L12.4386179,12.0372231 Z M3.55665014,3.96798236 C3.85823049,4.14069397 4.19438965,4.2957107 4.55857692,4.43000395 C4.80323654,3.70927336 5.11972337,3.07196199 5.49076989,2.54828804 C4.75302252,2.88841001 4.09608013,3.37387726 3.55665014,3.96798236 Z M12.4433348,3.96796578 C11.9039076,3.37386823 11.2469706,2.88840685 10.5092301,2.54828804 C10.8802763,3.07196153 11.1967629,3.70927225 11.4414224,4.43000207 C11.8055807,4.29571388 12.1417344,4.14069545 12.4433348,3.96796578 L12.4433348,3.96796578 Z"/>
</svg>
