<svg width="16" height="16" viewBox="0 0 16 16" xmlns="http://www.w3.org/2000/svg"><title>Settings</title><path d="M14.074 12.426l-1.295-1.29a5.435 5.435 0 0 0 .815-2.01h1.84A.576.576 0 0 0 16 8.532v-1.13a.576.576 0 0 0-.576-.571h-1.83a5.739 5.739 0 0 0-.837-2l1.29-1.301a.576.576 0 0 0 0-.811l-.815-.795a.57.57 0 0 0-.81 0L11.135 3.2a5.435 5.435 0 0 0-2.037-.79V.57A.57.57 0 0 0 8.565 0H7.403a.57.57 0 0 0-.571.576v1.835a5.75 5.75 0 0 0-2 .837l-1.296-1.29a.57.57 0 0 0-.805 0l-.81.81a.57.57 0 0 0 0 .81l1.31 1.292a5.435 5.435 0 0 0-.827 2.01H.565A.576.576 0 0 0 0 7.468v1.14a.576.576 0 0 0 .565.56h1.846c.144.714.423 1.392.821 2L1.957 12.47a.576.576 0 0 0 0 .81l.811.8a.57.57 0 0 0 .81 0L4.87 12.8a5.424 5.424 0 0 0 2.011.817v1.84a.57.57 0 0 0 .576.544h1.147a.576.576 0 0 0 .57-.576v-1.83a5.75 5.75 0 0 0 2-.837l1.302 1.29a.576.576 0 0 0 .81 0l.805-.81a.57.57 0 0 0-.016-.81zm-7.04-2.016a2.597 2.597 0 1 1 1.934-4.82 2.597 2.597 0 0 1-1.933 4.82z" fill="#FFF" fill-rule="evenodd"/></svg>