<svg id="Layer_1" data-name="Layer 1" xmlns="http://www.w3.org/2000/svg" viewBox="0 0 64 64"><defs><style>.cls-1{fill:#fff;}</style></defs><title>add-on</title><path id="shape-notifcations-addons" class="cls-1" d="M40.85,64a4.56,4.56,0,0,0,4.54-4.57V45.71s0-3.66,3.63-3.66c2.72,0,2.72,3.66,8.17,3.66,2.72,0,6.81-.91,6.81-9.14s-4.08-9.14-6.81-9.14c-5,0-5,3.2-8.17,3.2a3.29,3.29,0,0,1-3.63-3.2V22.86a4.56,4.56,0,0,0-4.54-4.57H31.78a3.56,3.56,0,0,1-3.63-3.66c0-2.74,3.63-2.74,3.63-7.77C31.78,4.11,30.87,0,22.7,0s-9.08,4.11-9.08,6.86c0,5,3.63,5,3.63,8.23s-3.63,3.2-3.63,3.2H4.55A4.56,4.56,0,0,0,0,22.86v6.86s-0.45,4.57,5,4.57c3.63,0,4.08-4.57,8.62-4.57,2.27-.46,4.54,2.29,4.54,6.86s-2.27,7.31-4.54,7.31c-4.54,0-5-5-8.62-5-5.45,0-5,5.94-5,5.94V59.43A4.56,4.56,0,0,0,4.55,64h11.8s5,0,5-4.57c0-3.66-4.54-.46-4.54-5,0-2.29,3.18-5.49,8.17-5.49s8.17,3.2,8.17,5.49c0,4.57-5,1.37-5,5C28.15,64,33.59,64,33.59,64h7.26Z" transform="translate(0)"/></svg>