<?xml version="1.0" encoding="UTF-8" standalone="no"?>
<svg width="94px" height="91px" viewBox="0 0 94 91" version="1.1" xmlns="http://www.w3.org/2000/svg" xmlns:xlink="http://www.w3.org/1999/xlink">
    <!-- Generator: Sketch 3.8.3 (29802) - http://www.bohemiancoding.com/sketch -->
    <title>Combined Shape</title>
    <desc>Created with Sketch.</desc>
    <defs></defs>
    <g id="Landing-Page-2.0" stroke="none" stroke-width="1" fill="none" fill-rule="evenodd">
        <g id="Landing-Page---Base" transform="translate(-894.000000, -1408.000000)" fill="#FFFFFF">
            <g id="Page-Content" transform="translate(0.000000, 60.000000)">
                <g id="Steps" transform="translate(0.000000, 1217.000000)">
                    <g id="Step-Three" transform="translate(839.000000, 131.000000)">
                        <path d="M142.837964,0 L84.2793214,0 C80.8752151,0 78.1152538,2.7599613 78.1152538,6.16406767 L78.1152538,20.0332199 L115.09966,20.0332199 C121.907873,20.0332199 127.427795,25.5531425 127.427795,32.3613553 L127.427795,61.6406767 L139.75593,69.3457613 L138.214914,61.6406767 L139.75593,61.6406767 C144.862861,61.6406767 149.002032,57.5015053 149.002032,52.3945752 L149.002032,6.16406767 C149.002032,2.7599613 146.242071,0 142.837964,0 Z M64.2461015,23.1152538 C59.1607457,23.1152538 55,27.2759995 55,32.3613553 L55,73.9688121 C55,79.0541679 59.1607457,83.2149136 64.2461015,83.2149136 L62.7050846,90.9199982 L76.5742369,83.2149136 L115.09966,83.2149136 C120.185016,83.2149136 124.345761,79.0541679 124.345761,73.9688121 L124.345761,32.3613553 C124.345761,27.2759995 120.185016,23.1152538 115.09966,23.1152538 L64.2461015,23.1152538 Z" id="Combined-Shape"></path>
                    </g>
                </g>
            </g>
        </g>
    </g>
</svg>