<svg id="Layer_1" data-name="Layer 1" xmlns="http://www.w3.org/2000/svg" viewBox="0 0 64 63.97"><defs><style>.cls-1{fill:#fff;}</style></defs><title>fox</title><path class="cls-1" d="M61,41.73C62.73,38.12,65.4,30,63.12,23.38l0,0.2a1.11,1.11,0,0,0,0-.12s-0.43,1.33-1,3.38c0-.27-0.08-0.55-0.13-0.82a30.46,30.46,0,0,0-.39-7.72,15.57,15.57,0,0,0-5.41-8.66l0.25,0.22-0.3-.23s0.07,0.37.18,1a12.14,12.14,0,0,0-4.38-4.13S52,7,52.14,8a30.06,30.06,0,0,0-41.05.26A15.77,15.77,0,0,1,12,9.54a18.3,18.3,0,0,1,4.6-.13,25.79,25.79,0,0,1,33.74,3c0.26,0.27.51,0.54,0.76,0.82A10.11,10.11,0,0,0,46.48,11c2.74,2.09,6.81,7.32,6.39,16.51A11,11,0,0,0,50.42,24c1,9.23.12,11.21-.47,13.66a8.06,8.06,0,0,0-.75-2.49,21,21,0,0,1-1.93,7c-1.38,3.11-2.8,4.07-3.44,4s-0.17-.65-0.28-1.19a7.52,7.52,0,0,0-1.9,1.48c-0.89,1-1.7,2-2.12,1.71A4.58,4.58,0,0,0,40.31,47a6.72,6.72,0,0,1-3.24,1.25,14,14,0,0,1-8.93-1.61,3.81,3.81,0,0,1,2.46.15c-0.77-.87-2.63-0.68-4-1.12-1.16-.38-2.68-2.06-3.55-2.9,3.56,0.89,7.34.25,9.54-1.29s3.52-2.69,4.69-2.42a1.16,1.16,0,0,0,1-2,6,6,0,0,0-6.13-1.75c-2.11.57-4.73,3-8.73,0.54C20.08,33.75,20.1,32.06,20.1,31a2.7,2.7,0,0,1,1.26-2.2,5.46,5.46,0,0,1,.72.31s-0.21-.32-0.34-0.49l0.09,0a15.88,15.88,0,0,1,1.58.65,2,2,0,0,1,.75.58s0.13-.09,0-0.38a2.12,2.12,0,0,0-.81-0.82h0a8,8,0,0,1,.94.47,4.55,4.55,0,0,0,.17-2,2.43,2.43,0,0,0-.25-1c-0.13-.2,0-0.29.25-0.11a3.08,3.08,0,0,0-.21-0.48h0a0.46,0.46,0,0,1,.08-0.16c0.65-.93,4.73-3.13,5-3.38a4.48,4.48,0,0,0,1.11-1.27,3.59,3.59,0,0,0,.78-2.19,1.34,1.34,0,0,0-1-.79,4.49,4.49,0,0,0-1.49-.09l0.09,0c-0.75,0-1.77-.07-3.15-0.06A3.26,3.26,0,0,1,23,16l-0.29-.46A5.42,5.42,0,0,1,22.42,15,10.92,10.92,0,0,1,26,9.37c0.11-.1-0.44.07-0.33,0a11.46,11.46,0,0,1,1-.59c0.19-.11-0.84-0.39-1.73-0.2a4.24,4.24,0,0,0-1.52.54c0.18-.2.78-0.51,0.64-0.48a9.27,9.27,0,0,0-3.07,1.58,1.34,1.34,0,0,1,0-.31,5.23,5.23,0,0,0-1.84,1.79,2.37,2.37,0,0,0,0-.38,7.22,7.22,0,0,0-.88,1h0a12.91,12.91,0,0,0-7.36.12,12,12,0,0,1-2.5-2.88c-0.07-.12-0.08.26-0.15,0.14A9.33,9.33,0,0,1,7.4,6.5c0-.11,0-0.21,0-0.31a2.67,2.67,0,0,0-.78.92,6,6,0,0,0-.53,1.23C6,8.64,5.9,8.82,5.84,9s0-.54,0-0.49a4.15,4.15,0,0,0-.48.92,5.27,5.27,0,0,0-.23.82v0a1.22,1.22,0,0,0,0-.36,15.6,15.6,0,0,0-.63,2.19,13.09,13.09,0,0,0-.34,2.08,20.44,20.44,0,0,0,0,3.09c0,0.18,0,.35,0,0.51a14.07,14.07,0,0,0-1.44,2.51A34.16,34.16,0,0,0,0,29.58,22.31,22.31,0,0,1,1.54,26a0.38,0.38,0,0,1,0,.07,33,33,0,0,0-1,11.76,31.57,31.57,0,0,1,.59-3.55,30.18,30.18,0,0,0,4.1,13.38,27.08,27.08,0,0,0,7.32,8.51c0.51,0.42,1,.82,1.56,1.21,3.41,2.56,8.72,5.7,13.24,6.38a6.9,6.9,0,0,1-2.56-1.41s5.38,1.78,9.3,1.62a1.79,1.79,0,0,1-1.48-.82s11.17,0.65,17-4.06A6.33,6.33,0,0,0,52,55.84a23.26,23.26,0,0,0,5.46-4.13,12.15,12.15,0,0,0,3.84-7.9c0,0.07,0,.14,0,0.21A3.5,3.5,0,0,0,61,41.73Z" transform="translate(0 0)"/></svg>