<svg width="102" height="93" viewBox="0 0 102 93" xmlns="http://www.w3.org/2000/svg"><style>path{fill:#ff9300}</style><path d="M43.274 4.766c3.454-6.294 9.168-6.366 12.771-.145l44.321 76.525c3.599 6.214.687 11.251-6.49 11.251H8.182c-7.183 0-10.207-5.098-6.75-11.396L43.273 4.766zM55.08 70.28c1.52 1.52 2.28 3.347 2.28 5.48 0 2.133-.76 3.947-2.28 5.44-1.52 1.493-3.347 2.24-5.48 2.24-2.133 0-3.96-.747-5.48-2.24-1.52-1.493-2.28-3.307-2.28-5.44 0-2.133.76-3.96 2.28-5.48C45.64 68.76 47.467 68 49.6 68c2.133 0 3.96.76 5.48 2.28zm.2-9.24H43.92L42.08 26.4h15.04l-1.84 34.64z" fill-rule="evenodd"/></svg>