<svg xmlns="http://www.w3.org/2000/svg" width="74" height="79" viewBox="0 0 74 79"><defs><linearGradient id="a" x1="0%" y1="0%" y2="100%"><stop offset="0%" stop-color="#00C8D7"/><stop offset="100%" stop-color="#0A84FF"/></linearGradient><linearGradient id="b" x1="-111.023%" y1="-103.378%" y2="100%"><stop offset="0%" stop-color="#00C8D7"/><stop offset="34.651%" stop-color="#06A2EE"/><stop offset="100%" stop-color="#0A84FF"/></linearGradient></defs><g fill="none" fill-rule="evenodd" transform="translate(2 2)"><path stroke="url(#a)" stroke-width="3" d="M66.388 51.614A13.964 13.964 0 0 0 56 47c-7.732 0-14 6.268-14 14 0 3.427 1.231 6.566 3.276 9h-11.37c-1.811 0-3.281-1.566-3.281-3.281 0-3.281 4.375-3.408 4.375-7.656 0-3.78-3.92-6.563-8.75-6.563s-8.75 2.782-8.75 6.563c0 4.248 4.375 4.374 4.375 7.656 0 1.715-1.47 3.281-3.281 3.281H4.375A4.374 4.374 0 0 1 0 65.625V47.031c0-1.811 1.57-3.281 3.281-3.281 3.281 0 3.408 4.375 7.656 4.375 3.785 0 6.563-3.92 6.563-8.75s-2.778-8.75-6.563-8.75C6.69 30.625 6.564 35 3.282 35 1.571 35 0 33.53 0 31.719v-9.844c0-2.42 1.96-4.375 4.375-4.375h14.219c1.811 0 3.281-1.566 3.281-3.281 0-3.281-4.375-3.408-4.375-7.656C17.5 2.783 21.42 0 26.25 0S35 2.783 35 6.563c0 4.248-4.375 4.375-4.375 7.656 0 1.715 1.47 3.281 3.281 3.281h14.219a4.374 4.374 0 0 1 4.375 4.375v14.219c0 1.811 1.57 3.281 3.281 3.281 3.282 0 3.408-4.375 7.657-4.375C67.222 35 70 38.92 70 43.75c0 3.453-1.42 6.44-3.612 7.864z"/><circle cx="56" cy="61" r="14" stroke="url(#b)" stroke-width="3"/><path fill="#0988FC" d="M54.466 55v4.441H50v3.126h4.457v4.443h3.118v-4.422h4.468v-3.05H57.62V55z"/></g></svg>