<svg width="80" height="69" viewBox="0 0 80 69" xmlns="http://www.w3.org/2000/svg"><title>icon_messageboard_white</title><defs><linearGradient x1="-55.833%" y1="-14.893%" x2="111.567%" y2="121.522%" id="a"><stop stop-color="#00C8D7" offset="0%"/><stop stop-color="#0A84FF" offset="100%"/></linearGradient><linearGradient x1="100%" y1="-31.366%" x2="-54.626%" y2="100%" id="b"><stop stop-color="#00C8D7" offset="0%"/><stop stop-color="#03B5E2" offset="0%"/><stop stop-color="#0A84FF" offset="100%"/></linearGradient><linearGradient x1="-45.059%" y1="-1247.461%" x2="132.435%" y2="1087.598%" id="c"><stop stop-color="#00C8D7" offset="0%"/><stop stop-color="#0A84FF" offset="100%"/></linearGradient></defs><g stroke-width="3" fill="none" fill-rule="evenodd"><path d="M51 40.319L63.143 55V38.077H69.9c3.369 0 6.099-2.695 6.099-6.02V6.02C76 2.695 73.27 0 69.901 0H22.1C18.73 0 16 2.695 16 6.02V15h29.816C48.68 15 51 17.303 51 20.145v20.174z" stroke="url(#a)" transform="translate(2 2)"/><path d="M45.816 15H5.184C2.32 15 0 17.303 0 20.145v22.249c0 2.841 2.32 5.144 5.184 5.144h22.99L40.07 62V47.538h5.745c2.863 0 5.184-2.303 5.184-5.144v-22.25C51 17.304 48.68 15 45.816 15z" stroke="url(#b)" transform="matrix(-1 0 0 1 53 2)"/><path d="M11 26h30M11 36h30" stroke="url(#c)" stroke-linecap="round" stroke-linejoin="round" transform="translate(2 2)"/></g></svg>