<?xml version="1.0" encoding="UTF-8" standalone="no"?>
<svg width="80px" height="69px" viewBox="0 0 80 69" version="1.1" xmlns="http://www.w3.org/2000/svg" xmlns:xlink="http://www.w3.org/1999/xlink">
    <!-- Generator: Sketch 47.1 (45422) - http://www.bohemiancoding.com/sketch -->
    <title>icon_messageboard_white</title>
    <desc>Created with Sketch.</desc>
    <defs>
        <linearGradient x1="-55.8333333%" y1="-14.8934659%" x2="111.567383%" y2="121.521662%" id="linearGradient-1">
            <stop stop-color="#00C8D7" offset="0%"></stop>
            <stop stop-color="#0A84FF" offset="100%"></stop>
        </linearGradient>
        <linearGradient x1="100%" y1="-31.3663564%" x2="-54.6262255%" y2="100%" id="linearGradient-2">
            <stop stop-color="#00C8D7" offset="0%"></stop>
            <stop stop-color="#03B5E2" offset="0%"></stop>
            <stop stop-color="#0A84FF" offset="100%"></stop>
        </linearGradient>
        <linearGradient x1="-45.0585938%" y1="-1247.46094%" x2="132.434896%" y2="1087.59766%" id="linearGradient-3">
            <stop stop-color="#00C8D7" offset="0%"></stop>
            <stop stop-color="#0A84FF" offset="100%"></stop>
        </linearGradient>
    </defs>
    <g id="Homepage_20171122" stroke="none" stroke-width="1" fill="none" fill-rule="evenodd">
        <g id="Not-Firefox" transform="translate(-828.000000, -1789.000000)" stroke-width="3">
            <g id="part4" transform="translate(217.000000, 1704.000000)">
                <g id="Group-13" transform="translate(536.000000, 64.000000)">
                    <g id="icon_messageboard_white" transform="translate(77.000000, 23.000000)">
                        <g id="Page-1">
                            <path d="M51,40.3188249 L63.1428571,55 L63.1428571,38.0769231 L69.9014286,38.0769231 C73.27,38.0769231 76,35.3819231 76,32.0565385 L76,6.02038462 C76,2.695 73.27,0 69.9014286,0 L22.0985714,0 C18.73,0 16,2.695 16,6.02038462 L16,15 L45.8162143,15 C48.6795,15 51,17.303 51,20.1446923 L51,40.3188249 Z" id="Combined-Shape" stroke="url(#linearGradient-1)"></path>
                            <path d="M45.8162143,15 L5.18378571,15 C2.3205,15 0,17.303 0,20.1446923 L0,42.3937692 C0,45.2354615 2.3205,47.5384615 5.18378571,47.5384615 L28.1738571,47.5384615 L40.0714286,62 L40.0714286,47.5384615 L45.8162143,47.5384615 C48.6795,47.5384615 51,45.2354615 51,42.3937692 L51,20.1446923 C51,17.303 48.6795,15 45.8162143,15 Z" id="Stroke-1-Copy" stroke="url(#linearGradient-2)" transform="translate(25.500000, 38.500000) scale(-1, 1) translate(-25.500000, -38.500000) "></path>
                            <path d="M11,26 L41,26" id="Line-3" stroke="url(#linearGradient-3)" stroke-linecap="round" stroke-linejoin="round"></path>
                            <path d="M11,36 L41,36" id="Line-3-Copy" stroke="url(#linearGradient-3)" stroke-linecap="round" stroke-linejoin="round"></path>
                        </g>
                    </g>
                </g>
            </g>
        </g>
    </g>
</svg>