<svg width="94" height="91" viewBox="0 0 94 91" xmlns="http://www.w3.org/2000/svg"><title>Combined Shape</title><path d="M87.838 0H29.279a6.164 6.164 0 0 0-6.164 6.164v13.87H60.1c6.808 0 12.328 5.52 12.328 12.327v29.28l12.328 7.705-1.541-7.705h1.54a9.246 9.246 0 0 0 9.247-9.246V6.165A6.164 6.164 0 0 0 87.838 0zM9.246 23.115C4.161 23.115 0 27.276 0 32.361V73.97c0 5.085 4.16 9.246 9.246 9.246l-1.54 7.705 13.868-7.705H60.1c5.085 0 9.246-4.16 9.246-9.246V32.36c0-5.085-4.161-9.246-9.246-9.246H9.246z" fill="#FFF" fill-rule="evenodd"/></svg>