<svg id="Layer_1" xmlns="http://www.w3.org/2000/svg" viewBox="0 0 24 24"><title>twitter-icon</title><g id="Layer_2"><path d="M24 0H0v24h24V0zm-6 8.9v.2c0 3.4-1.8 6.6-4.9 8.1a8.76 8.76 0 0 1-8.6-.5h.7c1.4 0 2.7-.5 3.8-1.3-1.3 0-2.5-.9-2.9-2.1.2 0 .4.1.6.1.3 0 .5 0 .8-.1-1.4-.3-2.5-1.6-2.5-3 0 .2.9.4 1.5.4-1.4-1-1.8-2.8-1-4.2 1.6 1.9 3.9 3.1 6.3 3.2-.4-1.7.6-3.3 2.3-3.7 1.1-.3 2.2.1 3 .9.7-.1 1.4-.4 2-.8-.2.7-.7 1.3-1.4 1.7.6-.1 1.2-.2 1.8-.5-.4.7-.9 1.2-1.5 1.6z" id="Layer_1-2" fill="#FFF" fill-rule="evenodd"/></g></svg>
