<svg xmlns="http://www.w3.org/2000/svg" width="16" height="16" viewBox="0 0 16 16"><path fill="#fff" d="M7.508 10.018v-1.55H5.01c.027.66.11 1.284.238 1.86.702-.17 1.463-.279 2.26-.31zm1 0c.792.033 1.547.14 2.244.31.128-.576.211-1.2.238-1.86H8.508v1.55zm-1-4.028c-.798-.031-1.56-.14-2.261-.311a10.567 10.567 0 0 0-.235 1.789h2.496V5.99zm1 0v1.478h2.48a10.567 10.567 0 0 0-.235-1.79c-.697.171-1.453.28-2.245.312zm-1 9.995A8.001 8.001 0 0 1 .013 8.468H0v-1h.017a8 8 0 0 1 15.966 0H16v1h-.013a8.001 8.001 0 0 1-7.479 7.516v.041h-1v-.04zm0-2.076v-2.895c-.7.03-1.372.125-1.99.275.469 1.366 1.205 2.33 1.99 2.62zm1-.007c.78-.297 1.509-1.257 1.975-2.613a10.474 10.474 0 0 0-1.975-.275v2.888zm-1-11.81c-.786.29-1.524 1.257-1.993 2.627.62.15 1.292.245 1.993.275V2.091zm1 .006v2.896a10.473 10.473 0 0 0 1.977-.275c-.466-1.36-1.196-2.323-1.977-2.621zm-6.49 6.37c.078 1.015.41 1.96.93 2.77.4-.237.85-.446 1.34-.622a11.53 11.53 0 0 1-.28-2.148h-1.99zm.005-1h1.988a11.51 11.51 0 0 1 .276-2.076 7.68 7.68 0 0 1-1.342-.625 5.964 5.964 0 0 0-.922 2.701zm11.959 1h-1.99a11.53 11.53 0 0 1-.28 2.148c.49.176.94.385 1.34.623.52-.811.852-1.756.93-2.771zm-.005-1a5.964 5.964 0 0 0-.922-2.701c-.4.238-.85.448-1.342.625.15.65.244 1.347.276 2.076h1.988zM3.56 12.038a6.017 6.017 0 0 0 1.93 1.414 7.342 7.342 0 0 1-.93-1.875 6.655 6.655 0 0 0-1 .46zm8.878 0a6.655 6.655 0 0 0-1-.461 7.342 7.342 0 0 1-.93 1.875 6.017 6.017 0 0 0 1.93-1.415zm-8.882-8.07c.301.173.637.328 1.002.462.244-.72.56-1.358.932-1.882a6.018 6.018 0 0 0-1.934 1.42zm8.886 0a6.018 6.018 0 0 0-1.934-1.42c.371.524.688 1.161.932 1.882.365-.134.7-.29 1.002-.462z"/></svg>