<svg width="146" height="127" viewBox="0 0 146 127" xmlns="http://www.w3.org/2000/svg" xmlns:xlink="http://www.w3.org/1999/xlink"><title>Email</title><defs><rect id="a" x="1.609" y="30.565" width="144.783" height="96.522" rx="2"/></defs><g transform="translate(-1 -1)" fill="none" fill-rule="evenodd"><mask id="b" fill="#fff"><use xlink:href="#a"/></mask><use fill="#B6BFC6" xlink:href="#a"/><path d="M150.154 106.685c.02.077.037.154.056.23-.049-.143-.566 1.439-1.29 3.884a37.38 37.38 0 0 0-.157-.975c.203-2.97.12-6.163-.472-9.197-.935-4.801-4.586-8.969-6.518-10.313.096.073.196.159.298.252a6.433 6.433 0 0 0-.352-.262l.219 1.211c-2.096-3.345-5.287-4.918-5.287-4.918s.098.558.256 1.73c-6.54-5.91-15.153-9.5-24.594-9.5-9.606 0-18.358 3.717-24.938 9.812.363.443.738.954 1.129 1.549 0 0 2.502-.455 5.552-.16a31.184 31.184 0 0 1 18.257-5.855c8.48 0 16.454 3.355 22.451 9.447.314.318.618.643.917.973-1.8-1.379-3.979-2.52-5.592-2.646 3.302 2.492 8.212 8.723 7.704 19.68-.846-1.805-1.862-3.223-2.963-4.212 1.185 11 .148 13.363-.571 16.286-.16-1.343-.635-2.353-.91-2.965 0 0-.128 3.437-2.329 8.336-1.666 3.708-3.386 4.855-4.148 4.726-.674-.114-.212-.774-.339-1.418 0 0-1.142.558-2.285 1.762-1.082 1.138-2.055 2.397-2.562 2.04.381-.321.657-.859.953-1.353-.423.301-1.503 1.117-3.916 1.483-.985.149-5.185.923-10.773-1.913.814-.094 2.032-.386 2.963.172-.931-1.03-3.175-.816-4.783-1.331-1.401-.45-3.233-2.449-4.284-3.456 4.298 1.068 8.863.297 11.506-1.536 2.667-1.85 4.246-3.204 5.662-2.883 1.416.32 2.359-1.122 1.258-2.403-1.1-1.283-3.775-3.046-7.392-2.084-2.551.678-5.713 3.543-10.538.643-4.118-2.475-4.09-4.488-4.09-5.768 0-.88.527-2.069 1.515-2.63.534.195.865.371.865.371s-.246-.385-.403-.572c.546.117 1.528.484 2.025.738.672.343.9.693.9.693s.158-.099-.007-.45c-.068-.146-.31-.569-.975-.981.383.138.754.317 1.164.552.127-.601.383-1.227.211-2.32-.12-.77-.106-.967-.296-1.246-.162-.239.043-.344.296-.13-.06-.19-.145-.379-.246-.569a.612.612 0 0 1 .103-.211c.787-1.108 5.7-3.728 6.09-4.021a5.31 5.31 0 0 0 1.339-1.51c.5-.316.854-1.622.948-2.604.037-.394-.804-.86-1.249-.945-.254-.065-1.148-.22-1.8-.108-.81-.01-2.038-.035-3.698-.021-1.624.013-2.68-.948-3.319-1.863a18.388 18.388 0 0 1-.341-.55 6.655 6.655 0 0 1-.323-.67c.71-2.613 2.143-4.876 4.36-6.714.135-.113-.53.078-.403-.043.15-.144 1.09-.598 1.265-.698.227-.13-1.022-.473-2.09-.247-1.07.225-1.281.354-1.831.644.222-.236.949-.61.772-.57-1.166.266-2.537 1.043-3.704 1.88-.01-.107 0-.193.021-.365-.551.292-1.884 1.333-2.222 2.127 0-.171 0-.257-.021-.45a8.269 8.269 0 0 0-1.073 1.23c-3.484-.857-6.43-.644-8.891.157-.82-.674-2.072-1.879-3.022-3.434-.087-.142-.098.32-.18.172-.532-.971-.99-2.562-1.106-3.823a6.807 6.807 0 0 1-.026-.37s-.456.272-.945 1.1c-.219.369-.443.849-.636 1.465a8.72 8.72 0 0 1-.27.758c-.026.06.049-.643.02-.586-.12.249-.46.645-.57 1.096-.085.341-.221.545-.272.974-.02-.08-.027-.474-.055-.397a18.465 18.465 0 0 0-.756 2.61 15.57 15.57 0 0 0-.404 2.477 23.547 23.547 0 0 0-.01 3.676c-.003.215-.008.415-.015.608-.934 1.306-1.504 2.434-1.74 2.987-1.14 2.254-2.306 5.72-3.247 11.106 0 0 .62-1.997 1.865-4.273-.924 2.988-1.625 7.453-1.203 14.096.017-.222.213-1.927.711-4.228.24 4.49 1.505 9.96 4.949 15.946 2.53 4.398 5.505 7.695 8.833 10.15.613.5 1.242.981 1.886 1.441 4.117 3.048 10.519 6.805 15.978 7.601-1.905-.558-3.09-1.675-3.09-1.675s6.485 2.115 11.217 1.933c-1.481-.258-1.778-.988-1.778-.988s13.479.773 20.482-4.84c1.567-1.2 2.6-2.588 2.907-3.855 2.065-1.116 4.294-2.64 6.582-4.926 3.808-3.807 4.222-6.703 4.635-9.41a6.268 6.268 0 0 1-.052.253c.173-1.087.058-2.042-.363-2.743 2.129-4.3 5.349-13.969 2.595-21.873z" fill="#CAD3DA" mask="url(#b)"/><path d="M7.426 1.609a.99.99 0 0 0-.991.99v35.042c0 .547.397 1.207.879 1.47l64.571 35.203c1.168.637 3.057.64 4.23 0l64.571-35.203c.486-.265.88-.92.88-1.47V2.6c0-.547-.45-.99-.992-.99H7.426z" fill="#F1F1F1"/><rect fill="#E66000" x="16.087" y="11.261" width="38.609" height="7.239" rx="1"/><rect fill="#E66000" x="16.087" y="23.326" width="53.087" height="7.239" rx="1"/></g></svg>