<svg xmlns="http://www.w3.org/2000/svg" width="18" height="20" viewBox="0 0 18 20">
  <path fill="#FFF" d="M17.1433287,15.5860721 C16.8408687,16.2848165 16.4828548,16.9280069 16.0680525,17.519347 C15.5026375,18.3254955 15.0396886,18.8835033 14.6829092,19.1933705 C14.1298395,19.7019971 13.5372648,19.9624831 12.9027161,19.9772975 C12.4471743,19.9772975 11.8978082,19.8476717 11.2583214,19.5847167 C10.6167358,19.3229962 10.027124,19.1933705 9.48800449,19.1933705 C8.92258948,19.1933705 8.31618805,19.3229962 7.66756568,19.5847167 C7.01795569,19.8476717 6.49463817,19.9847046 6.09452681,19.9982845 C5.48602668,20.0242096 4.8795018,19.7563165 4.274088,19.1933705 C3.88767992,18.8563437 3.4043612,18.2785834 2.82536635,17.4600896 C2.20415056,16.5860419 1.69342525,15.5724923 1.29331389,14.4169717 C0.864808323,13.1688613 0.65,11.9602558 0.65,10.7901677 C0.65,9.44983785 0.939620876,8.29382341 1.5197268,7.32508725 C1.97563895,6.54696262 2.58216383,5.93315401 3.34127669,5.48255035 C4.10038954,5.03194668 4.92061167,4.80232399 5.8039183,4.78763308 C6.28723703,4.78763308 6.92104504,4.93713473 7.70867555,5.23095301 C8.49408391,5.52575892 8.99838966,5.67526057 9.21949409,5.67526057 C9.38479773,5.67526057 9.94502771,5.50045104 10.8947521,5.15194306 C11.7928731,4.82874295 12.5508749,4.69491983 13.1718438,4.74763429 C14.854509,4.88343265 16.1186683,5.54674594 16.9593836,6.74177155 C15.4544908,7.65359584 14.7100689,8.93071774 14.7248833,10.5690633 C14.7384631,11.8451976 15.2014121,12.9071408 16.1112611,13.7503252 C16.5235943,14.1416714 16.9840742,14.4441313 17.4964044,14.6589397 C17.3852967,14.9811522 17.2680163,15.2897848 17.1433287,15.5860721 Z M13.2841861,0.400111364 C13.2841861,1.40034039 12.918765,2.33425044 12.190392,3.19866876 C11.3114062,4.22629202 10.2482284,4.82010123 9.09530031,4.72640036 C9.0806094,4.60640399 9.07209113,4.48011151 9.07209113,4.34739947 C9.07209113,3.38718158 9.49010319,2.35955832 10.2324264,1.5193368 C10.6030325,1.09391756 11.0743763,0.740187506 11.645964,0.458010849 C12.2163171,0.180043941 12.755807,0.0263201922 13.263199,0 C13.2780134,0.133712008 13.2841861,0.267436362 13.2841861,0.400099019 L13.2841861,0.400111364 Z"/>
</svg>
