<svg xmlns="http://www.w3.org/2000/svg" width="18" height="20" viewBox="0 0 18 20">
  <path fill="#FFF" d="M5,15 C5,15.4583333 5.375,15.8333333 5.83333333,15.8333333 L6.66666667,15.8333333 L6.66666667,18.75 C6.66666667,19.4416667 7.225,20 7.91666667,20 C8.60833333,20 9.16666667,19.4416667 9.16666667,18.75 L9.16666667,15.8333333 L10.8333333,15.8333333 L10.8333333,18.75 C10.8333333,19.4416667 11.3916667,20 12.0833333,20 C12.775,20 13.3333333,19.4416667 13.3333333,18.75 L13.3333333,15.8333333 L14.1666667,15.8333333 C14.625,15.8333333 15,15.4583333 15,15 L15,6.66666667 L5,6.66666667 L5,15 Z M2.91666667,6.66666667 C2.225,6.66666667 1.66666667,7.225 1.66666667,7.91666667 L1.66666667,13.75 C1.66666667,14.4416667 2.225,15 2.91666667,15 C3.60833333,15 4.16666667,14.4416667 4.16666667,13.75 L4.16666667,7.91666667 C4.16666667,7.225 3.60833333,6.66666667 2.91666667,6.66666667 Z M17.0833333,6.66666667 C16.3916667,6.66666667 15.8333333,7.225 15.8333333,7.91666667 L15.8333333,13.75 C15.8333333,14.4416667 16.3916667,15 17.0833333,15 C17.775,15 18.3333333,14.4416667 18.3333333,13.75 L18.3333333,7.91666667 C18.3333333,7.225 17.775,6.66666667 17.0833333,6.66666667 Z M12.9416667,1.8 L14.025,0.716666667 C14.1916667,0.55 14.1916667,0.291666667 14.025,0.125 C13.8583333,-0.0416666667 13.6,-0.0416666667 13.4333333,0.125 L12.2,1.35833333 C11.5416667,1.025 10.7916667,0.833333333 10,0.833333333 C9.2,0.833333333 8.45,1.025 7.78333333,1.35833333 L6.54166667,0.125 C6.375,-0.0416666667 6.11666667,-0.0416666667 5.95,0.125 C5.78333333,0.291666667 5.78333333,0.55 5.95,0.716666667 L7.04166667,1.80833333 C5.80833333,2.71666667 5,4.175 5,5.83333333 L15,5.83333333 C15,4.175 14.1916667,2.70833333 12.9416667,1.8 Z M8.33333333,4.16666667 L7.5,4.16666667 L7.5,3.33333333 L8.33333333,3.33333333 L8.33333333,4.16666667 Z M12.5,4.16666667 L11.6666667,4.16666667 L11.6666667,3.33333333 L12.5,3.33333333 L12.5,4.16666667 Z" transform="translate(-1)"/>
</svg>
