<svg xmlns="http://www.w3.org/2000/svg" width="65" height="59" viewBox="0 0 65 59"><g fill="none" fill-rule="evenodd"><path fill="#FFD469" d="M0 34.563c0-1.994 1.598-3.61 3.568-3.61h10.405c1.97 0 3.567 1.616 3.567 3.61 0 1.995-1.597 3.612-3.567 3.612H3.568C1.598 38.175 0 36.558 0 34.563"/><path fill="#FFD469" d="M61.905 29.405c0 16.241-13.164 29.405-29.405 29.405-16.24 0-29.405-13.164-29.405-29.405C3.095 13.165 16.26 0 32.5 0c16.24 0 29.405 13.166 29.405 29.405"/><path fill="#FFB636" d="M53.82 9.286a29.948 29.948 0 0 1 4.47 15.785c0 16.636-13.487 30.125-30.123 30.125a29.963 29.963 0 0 1-15.786-4.468c5.259 5.006 12.371 8.082 20.204 8.082 16.193 0 29.32-13.126 29.32-29.32 0-7.835-3.076-14.947-8.085-20.204"/><path fill="#2B3B47" d="M47.46 19.603c1.71 0 3.096 1.416 3.096 3.162v7.089c0 1.746-1.386 3.162-3.096 3.162-1.71 0-3.095-1.416-3.095-3.162v-7.089c0-1.746 1.386-3.162 3.095-3.162"/><path fill="#FFD469" d="M50.556 33.532a3.611 3.611 0 1 1-7.223 0 3.611 3.611 0 0 1 7.223 0"/><path stroke="#F2A74E" stroke-linecap="round" stroke-linejoin="round" stroke-width="2.25" d="M44.365 30.742c1.95-1.051 4.22-1.107 6.19-.09"/><path fill="#2B3B47" d="M17.54 19.603c1.71 0 3.095 1.416 3.095 3.162v7.089c0 1.746-1.386 3.162-3.095 3.162-1.71 0-3.096-1.416-3.096-3.162v-7.089c0-1.746 1.386-3.162 3.096-3.162"/><path fill="#FFD469" d="M21.667 33.532a3.611 3.611 0 1 1-7.223 0 3.611 3.611 0 0 1 7.223 0"/><path stroke="#F2A74E" stroke-linecap="round" stroke-linejoin="round" stroke-width="2.25" d="M14.444 30.742c1.95-1.051 4.22-1.107 6.19-.09"/><path fill="#2B3B47" d="M53.195 38.333c-.685-.068-1.37-.113-2.055-.157-.185.048-.699.178-1.482.328-.994.144-2.415.5-4.12.66-1.705.157-3.694.464-5.826.571-2.13.153-4.403.176-6.676.213-2.274-.038-4.547-.065-6.678-.217-2.131-.113-4.12-.413-5.825-.57-1.705-.163-3.125-.514-4.12-.66-.789-.15-1.303-.279-1.485-.326a71.41 71.41 0 0 0-2.09.158.427.427 0 0 0-.24.095.575.575 0 0 0-.128.759l.368.572c.842 1.3 1.682 2.417 2.522 3.36.844.976 1.68 1.791 2.524 2.569 1.68 1.517 3.361 2.636 5.046 3.583.458.245.918.43 1.377.639 2.559-1.835 5.532.646 8.71.646 3.186 0 6.161-2.47 8.727-.622.453-.206.909-.384 1.364-.629 1.68-.947 3.361-2.064 5.044-3.586.841-.78 1.68-1.598 2.52-2.582.84-.944 1.683-2.067 2.523-3.378l.369-.577a.585.585 0 0 0 .085-.263c.024-.297-.182-.562-.454-.586"/><path fill="#FFF" d="M20.034 39.54c1.7.14 3.684.406 5.81.506 2.124.135 4.39.159 6.657.192 2.267-.032 4.535-.053 6.66-.189 2.125-.094 4.108-.366 5.808-.505 1.7-.141 3.117-.457 4.108-.585a25.674 25.674 0 0 0 1.479-.29c-.994-.059-1.987-.111-2.98-.174l-5.03-.177c-3.353-.1-6.71-.092-10.063-.143-3.355.05-6.71.043-10.059.145l-5.031.175c-.982.063-1.965.114-2.949.172.182.043.695.157 1.48.29.993.128 2.41.439 4.11.584"/><path fill="#FF473E" d="M41.241 49.71c.01-.003.019-.005.029-.01-2.575-1.757-5.586-1.188-8.76-.808h-.02c-3.174-.38-6.186-.949-8.76.808.01.005.019.007.029.01-.01.006-.02.008-.029.013 2.875 1.249 5.75 1.84 8.621 1.856.047.001.094.007.14.008h.019c.045 0 .091-.007.138-.008 2.872-.017 5.747-.607 8.622-1.856-.01-.005-.02-.007-.029-.012"/><path fill="#FFB636" d="M61.573 30.952c1.892 0 3.427 1.618 3.427 3.612s-1.535 3.61-3.427 3.61h-3.386c-1.892 0 3.386-7.222 3.386-7.222"/></g></svg>