<svg xmlns="http://www.w3.org/2000/svg" width="65" height="59" viewBox="0 0 65 59"><g fill="none" fill-rule="evenodd"><path fill="#FFD469" d="M61.942 29.545c0 16.135-13.186 29.212-29.456 29.212-16.267 0-29.455-13.077-29.455-29.212C3.03 13.412 16.219.333 32.486.333c16.27 0 29.456 13.08 29.456 29.212"/><path fill="#FFB636" d="M53.82 9.417a29.66 29.66 0 0 1 4.491 15.727c0 16.574-13.55 30.013-30.264 30.013a30.295 30.295 0 0 1-15.858-4.452 29.472 29.472 0 0 0 20.297 8.052c16.27 0 29.456-13.077 29.456-29.212 0-7.805-3.09-14.891-8.121-20.128"/><path fill="#FFD469" d="M.02 34.277c0-1.917 1.568-3.471 3.5-3.471H13.73c1.932 0 3.499 1.554 3.499 3.47 0 1.918-1.567 3.472-3.5 3.472H3.522c-1.933 0-3.5-1.554-3.5-3.471"/><path fill="#FFB636" d="M57.856 34.277c0-1.917-.413-3.471 1.521-3.471h2.076c1.932 0 3.5 1.554 3.5 3.47 0 1.918-1.568 3.472-3.5 3.472H58.68c-1.933 0-.824-1.554-.824-3.471"/><path stroke="#F2A74E" stroke-linecap="round" stroke-linejoin="round" stroke-width="2.275" d="M19.591 16.596c-1.365 2.707-4.835 3.63-7.38 1.96m39.856 0c-2.546 1.669-6.018.746-7.379-1.96"/><path fill="#2B3B47" d="M17.88 21.655c1.787 0 3.235 1.436 3.235 3.208v7.192c0 1.772-1.448 3.208-3.234 3.208-1.787 0-3.235-1.436-3.235-3.208v-7.192c0-1.772 1.448-3.208 3.235-3.208m29.322 0c1.787 0 3.235 1.436 3.235 3.208v7.192c0 1.772-1.448 3.208-3.235 3.208-1.786 0-3.234-1.436-3.234-3.208v-7.192c0-1.772 1.448-3.208 3.234-3.208m-8.915 24.781s-2.336-.713-5.733-.713c-3.395 0-5.17.713-5.17.713s.294-4.855 5.452-4.855 5.45 4.855 5.45 4.855"/><path stroke="#2B3B47" stroke-linecap="round" stroke-linejoin="round" stroke-width="4.878" d="M38.288 46.436s-2.336-.713-5.733-.713c-3.395 0-5.17.713-5.17.713s.294-4.855 5.452-4.855 5.45 4.855 5.45 4.855z"/><path fill="#00BEEA" d="M15.57 39.412l2.95 7.778c.71 2.454-.612 5.046-2.954 5.79-2.341.745-4.815-.641-5.526-3.095a4.832 4.832 0 0 1 0-2.695l2.95-7.778c.216-.747.97-1.168 1.682-.942.444.141.77.51.899.942"/></g></svg>