<svg xmlns="http://www.w3.org/2000/svg" width="72" height="68" viewBox="0 0 72 68"><g fill="none" fill-rule="evenodd"><path fill="#FFD469" d="M68.613 33.846c0 18.484-14.607 33.465-32.628 33.465-18.02 0-32.628-14.98-32.628-33.465C3.357 15.365 17.965.381 35.985.381c18.021 0 32.628 14.984 32.628 33.465"/><path fill="#FFB636" d="M59.616 10.788c3.153 5.238 4.974 11.407 4.974 18.017 0 18.986-15.009 34.381-33.522 34.381a32.738 32.738 0 0 1-17.567-5.1c5.852 5.713 13.767 9.224 22.484 9.224 18.02 0 32.628-14.98 32.628-33.463 0-8.942-3.423-17.06-8.997-23.059"/><path fill="#FFD469" d="M.023 39.266c0-2.196 1.736-3.976 3.877-3.976h11.306c2.141 0 3.876 1.78 3.876 3.976 0 2.196-1.735 3.977-3.876 3.977H3.9c-2.14 0-3.877-1.78-3.877-3.977"/><path fill="#FFB636" d="M64.087 39.266c0-2.196-.457-3.976 1.684-3.976h2.3c2.14 0 3.877 1.78 3.877 3.976 0 2.196-1.736 3.977-3.877 3.977H65c-2.141 0-.913-1.78-.913-3.977"/><path fill="#FFF" d="M44.286 48.152c0 4.033-3.71-3.066-8.29-3.066-4.578 0-8.289 7.099-8.289 3.066s3.711-7.302 8.29-7.302c4.578 0 8.29 3.27 8.29 7.302"/><path fill="#2B3B47" d="M41.546 42.674h-11.1c-1.765 1.436-2.904 3.52-2.904 5.87 0 2.91 1.731 5.418 4.27 6.771 1.237-.66 2.654-.448 4.184-.448 1.53 0 2.947-.211 4.185.448 2.54-1.353 4.27-3.861 4.27-6.771 0-2.35-1.14-4.434-2.905-5.87"/><path fill="#FF473E" d="M31.811 55.315a8.889 8.889 0 0 0 4.185 1.065c1.53 0 2.947-.407 4.184-1.065-1.236-.659-2.654-.448-4.184-.448-1.53 0-2.948-.211-4.185.448"/><path stroke="#F2A74E" stroke-linecap="round" stroke-linejoin="round" stroke-width="2.275" d="M49.16 15.828c2.997-1.526 6.224-.647 8.463 1.944M23.62 15.828c-2.997-1.526-6.224-.647-8.463 1.944"/><path stroke="#2B3B47" stroke-linecap="round" stroke-width="3.853" d="M15.35 25.627l8.077 8.285m0-8.285l-8.077 8.285m34.002-8.285l8.078 8.285m0-8.285l-8.077 8.285"/></g></svg>