<svg xmlns="http://www.w3.org/2000/svg" width="72" height="68" viewBox="0 0 72 68">
  <g fill="none" fill-rule="evenodd">
    <path fill="#FFD469" d="M68.6133,33.8460513 C68.6133,52.3301538 54.0063,67.3106667 35.9853,67.3106667 C17.9653,67.3106667 3.3573,52.3301538 3.3573,33.8460513 C3.3573,15.3650256 17.9653,0.381435897 35.9853,0.381435897 C54.0063,0.381435897 68.6133,15.3650256 68.6133,33.8460513"/>
    <path fill="#FFB636" d="M59.6162,10.7882051 C62.7692,16.0261538 64.5902,22.1953846 64.5902,28.8046154 C64.5902,47.7912821 49.5812,63.1861538 31.0682,63.1861538 C24.6262,63.1861538 18.6102,61.3184615 13.5012,58.0866667 C19.3532,63.7994872 27.2682,67.3102564 35.9852,67.3102564 C54.0052,67.3102564 68.6132,52.3297436 68.6132,33.8466667 C68.6132,24.9051282 65.1902,16.7871795 59.6162,10.7882051"/>
    <path fill="#FFD469" d="M0.0234,39.2662564 C0.0234,37.070359 1.7594,35.2898462 3.9004,35.2898462 L15.2064,35.2898462 C17.3474,35.2898462 19.0824,37.070359 19.0824,39.2662564 C19.0824,41.4621538 17.3474,43.2426667 15.2064,43.2426667 L3.9004,43.2426667 C1.7594,43.2426667 0.0234,41.4621538 0.0234,39.2662564"/>
    <path fill="#FFB636" d="M64.0869,39.2662564 C64.0869,37.070359 63.6299,35.2898462 65.7709,35.2898462 L68.0709,35.2898462 C70.2119,35.2898462 71.9479,37.070359 71.9479,39.2662564 C71.9479,41.4621538 70.2119,43.2426667 68.0709,43.2426667 L64.9999,43.2426667 C62.8589,43.2426667 64.0869,41.4621538 64.0869,39.2662564"/>
    <path fill="#FFF" d="M44.2861,48.152 C44.2861,52.1848205 40.5751,45.086359 35.9961,45.086359 C31.4181,45.086359 27.7071,52.1848205 27.7071,48.152 C27.7071,44.1191795 31.4181,40.8504615 35.9961,40.8504615 C40.5751,40.8504615 44.2861,44.1191795 44.2861,48.152"/>
    <path fill="#2B3B47" d="M41.5464,42.6742564 L30.4464,42.6742564 C28.6814,44.1101538 27.5424,46.1942564 27.5424,48.544 C27.5424,51.4537436 29.2734,53.9624615 31.8114,55.3152821 C33.0494,54.6557949 34.4664,54.8670769 35.9964,54.8670769 C37.5264,54.8670769 38.9434,54.6557949 40.1814,55.3152821 C42.7204,53.9624615 44.4504,51.4537436 44.4504,48.544 C44.4504,46.1942564 43.3114,44.1101538 41.5464,42.6742564"/>
    <path fill="#FF473E" d="M31.8115,55.3154872 C33.0485,55.9729231 34.4655,56.3801026 35.9965,56.3801026 C37.5265,56.3801026 38.9435,55.9729231 40.1805,55.3154872 C38.9435,54.656 37.5265,54.8672821 35.9965,54.8672821 C34.4655,54.8672821 33.0485,54.656 31.8115,55.3154872"/>
    <path stroke="#F2A74E" stroke-linecap="round" stroke-linejoin="round" stroke-width="2.275" d="M49.1602 15.8277949C52.1572 14.301641 55.3842 15.1806154 57.6232 17.7724103M23.6196 15.8277949C20.6226 14.301641 17.3956 15.1806154 15.1566 17.7724103"/>
    <path stroke="#2B3B47" stroke-linecap="round" stroke-width="3.853" d="M15.3491 25.6269744L23.4271 33.9121026M23.4277 25.6269744L15.3497 33.9121026M49.3521 25.6269744L57.4301 33.9121026M57.4307 25.6269744L49.3527 33.9121026"/>
  </g>
</svg>
