<svg id="Layer_1" data-name="Layer 1" xmlns="http://www.w3.org/2000/svg" viewBox="0 0 64 63.97"><defs><style>.cls-1{fill:#fff}</style></defs><title>fox</title><path class="cls-1" d="M61 41.73c1.73-3.61 4.4-11.73 2.12-18.35v.2a1.11 1.11 0 0 0 0-.12s-.43 1.33-1 3.38c0-.27-.08-.55-.13-.82a30.46 30.46 0 0 0-.39-7.72 15.57 15.57 0 0 0-5.41-8.66l.25.22-.3-.23s.07.37.18 1a12.14 12.14 0 0 0-4.38-4.13s.06.5.2 1.5a30.06 30.06 0 0 0-41.05.26A15.77 15.77 0 0 1 12 9.54a18.3 18.3 0 0 1 4.6-.13 25.79 25.79 0 0 1 33.74 3c.26.27.51.54.76.82A10.11 10.11 0 0 0 46.48 11c2.74 2.09 6.81 7.32 6.39 16.51A11 11 0 0 0 50.42 24c1 9.23.12 11.21-.47 13.66a8.06 8.06 0 0 0-.75-2.49 21 21 0 0 1-1.93 7c-1.38 3.11-2.8 4.07-3.44 4s-.17-.65-.28-1.19a7.52 7.52 0 0 0-1.9 1.48c-.89 1-1.7 2-2.12 1.71a4.58 4.58 0 0 0 .78-1.17 6.72 6.72 0 0 1-3.24 1.25 14 14 0 0 1-8.93-1.61 3.81 3.81 0 0 1 2.46.15c-.77-.87-2.63-.68-4-1.12-1.16-.38-2.68-2.06-3.55-2.9 3.56.89 7.34.25 9.54-1.29s3.52-2.69 4.69-2.42a1.16 1.16 0 0 0 1-2 6 6 0 0 0-6.13-1.75c-2.11.57-4.73 3-8.73.54-3.34-2.1-3.32-3.79-3.32-4.85a2.7 2.7 0 0 1 1.26-2.2 5.46 5.46 0 0 1 .72.31s-.21-.32-.34-.49h.09a15.88 15.88 0 0 1 1.58.65 2 2 0 0 1 .75.58s.13-.09 0-.38a2.12 2.12 0 0 0-.81-.82 8 8 0 0 1 .94.47 4.55 4.55 0 0 0 .17-2 2.43 2.43 0 0 0-.25-1c-.13-.2 0-.29.25-.11a3.08 3.08 0 0 0-.21-.48.46.46 0 0 1 .08-.16c.65-.93 4.73-3.13 5-3.38a4.48 4.48 0 0 0 1.11-1.27 3.59 3.59 0 0 0 .78-2.19 1.34 1.34 0 0 0-1-.79 4.49 4.49 0 0 0-1.49-.09h.09c-.75 0-1.77-.07-3.15-.06A3.26 3.26 0 0 1 23 16l-.29-.46a5.42 5.42 0 0 1-.29-.54A10.92 10.92 0 0 1 26 9.37c.11-.1-.44.07-.33 0a11.46 11.46 0 0 1 1-.59c.19-.11-.84-.39-1.73-.2a4.24 4.24 0 0 0-1.52.54c.18-.2.78-.51.64-.48a9.27 9.27 0 0 0-3.07 1.58 1.34 1.34 0 0 1 0-.31 5.23 5.23 0 0 0-1.84 1.79 2.37 2.37 0 0 0 0-.38 7.22 7.22 0 0 0-.88 1 12.91 12.91 0 0 0-7.36.12 12 12 0 0 1-2.5-2.88c-.07-.12-.08.26-.15.14a9.33 9.33 0 0 1-.86-3.2v-.31a2.67 2.67 0 0 0-.78.92 6 6 0 0 0-.53 1.23c-.09.3-.19.48-.25.66s0-.54 0-.49a4.15 4.15 0 0 0-.48.92 5.27 5.27 0 0 0-.23.82 1.22 1.22 0 0 0 0-.36 15.6 15.6 0 0 0-.63 2.19 13.09 13.09 0 0 0-.34 2.08 20.44 20.44 0 0 0 0 3.09v.51a14.07 14.07 0 0 0-1.44 2.51A34.16 34.16 0 0 0 0 29.58 22.31 22.31 0 0 1 1.54 26a.38.38 0 0 1 0 .07 33 33 0 0 0-1 11.76 31.57 31.57 0 0 1 .59-3.55 30.18 30.18 0 0 0 4.1 13.38 27.08 27.08 0 0 0 7.32 8.51c.51.42 1 .82 1.56 1.21 3.41 2.56 8.72 5.7 13.24 6.38a6.9 6.9 0 0 1-2.56-1.41s5.38 1.78 9.3 1.62a1.79 1.79 0 0 1-1.48-.82s11.17.65 17-4.06A6.33 6.33 0 0 0 52 55.84a23.26 23.26 0 0 0 5.46-4.13 12.15 12.15 0 0 0 3.84-7.9v.21a3.5 3.5 0 0 0-.3-2.29z"/></svg>