<svg id="Layer_1" xmlns="http://www.w3.org/2000/svg" viewBox="0 0 24 24"><style>.st0{fill:#fff}</style><title>github-icon</title><g id="Layer_2"><path class="st0" d="M24 24V0H0v24h8.5c.3-.1.5-.3.5-.6v-2.1c-3.4.7-4.1-1.6-4.1-1.6-.2-.7-.7-1.4-1.4-1.8-1.1-.8.1-.7.1-.7.8.1 1.5.6 1.9 1.3.7 1.3 2.3 1.7 3.5 1 .1-.6.3-1.2.8-1.6-2.7-.3-5.6-1.4-5.6-6 0-1.2.4-2.4 1.2-3.3-.3-1.2-.3-2.3.2-3.3 0 0 1-.3 3.4 1.2 2-.5 4.1-.5 6.1 0 2.3-1.6 3.4-1.2 3.4-1.2.4 1 .5 2.2.1 3.2.8.9 1.3 2.1 1.3 3.3 0 4.7-2.9 5.7-5.6 6 .6.6.9 1.4.8 2.3v3.4c0 .3.2.5.4.6H24z" id="Layer_1-2"/></g></svg>