<?xml version="1.0" encoding="UTF-8" standalone="no"?>
<svg width="16px" height="16px" viewBox="0 0 16 16" version="1.1" xmlns="http://www.w3.org/2000/svg" xmlns:xlink="http://www.w3.org/1999/xlink">
    <!-- Generator: Sketch 47.1 (45422) - http://www.bohemiancoding.com/sketch -->
    <title>icon_enabled</title>
    <desc>Created with Sketch.</desc>
    <defs></defs>
    <g id="Photon-style" stroke="none" stroke-width="1" fill="none" fill-rule="evenodd">
        <g id="00.Featured-experiment_modal_02" transform="translate(-295.000000, -156.000000)" fill="#FFFFFF">
            <g id="Group-8" transform="translate(256.000000, 150.000000)">
                <g id="tag" transform="translate(31.000000, 0.000000)">
                    <g id="Page-1" transform="translate(8.000000, 6.000000)">
                        <g id="icon_enabled">
                            <path d="M5.06666667,15.4670933 C4.78506667,15.4670933 4.51306667,15.35616 4.31253333,15.15456 L0.312533333,11.15456 C-0.104533333,10.7374933 -0.104533333,10.06336 0.312533333,9.64629333 C0.7296,9.22922667 1.40373333,9.22922667 1.8208,9.64629333 L4.9216,12.7470933 L13.5264,0.455893333 C13.8634667,-0.0283733333 14.5290667,-0.14464 15.0112,0.193493333 C15.4944,0.53056 15.6117333,1.19616 15.2736,1.67829333 L5.94026667,15.0116267 C5.75893333,15.26976 5.47413333,15.43616 5.15946667,15.4628267 C5.12853333,15.4660267 5.0976,15.4670933 5.06666667,15.4670933" id="Fill-1"></path>
                        </g>
                    </g>
                </g>
            </g>
        </g>
    </g>
</svg>