<svg xmlns="http://www.w3.org/2000/svg" width="13020" height="60"><svg xmlns="http://www.w3.org/2000/svg" width="217" height="60" viewBox="0 0 217 60" style="width:100%;height:100%"><defs><clipPath id="a"><path d="M0 0h217v60H0z"/></clipPath></defs><g clip-path="url(#a)"><path fill="#fff" d="M33.75 0c16.557 0 30 13.443 30 30 0 16.557-13.443 30-30 30-16.557 0-30-13.443-30-30 0-16.557 13.443-30 30-30z" style="-moz-user-select:none"/></g></svg><svg xmlns="http://www.w3.org/2000/svg" width="217" height="60" viewBox="0 0 217 60" style="width:100%;height:100%" x="217"><defs><clipPath id="b"><path d="M0 0h217v60H0z"/></clipPath></defs><g clip-path="url(#b)"><path fill="#fff" d="M38.29 0c16.556 0 30 13.443 30 30 0 16.557-13.444 30-30 30-16.558 0-30-13.443-30-30 0-16.557 13.442-30 30-30z" style="-moz-user-select:none"/></g></svg><svg xmlns="http://www.w3.org/2000/svg" width="217" height="60" viewBox="0 0 217 60" style="width:100%;height:100%" x="434"><defs><clipPath id="c"><path d="M0 0h217v60H0z"/></clipPath></defs><g clip-path="url(#c)"><path fill="#fff" d="M52.433 0c16.557 0 30 13.443 30 30 0 16.557-13.443 30-30 30-16.557 0-30-13.443-30-30 0-16.557 13.443-30 30-30z" style="-moz-user-select:none"/></g></svg><svg xmlns="http://www.w3.org/2000/svg" width="217" height="60" viewBox="0 0 217 60" style="width:100%;height:100%" x="651"><defs><clipPath id="d"><path d="M0 0h217v60H0z"/></clipPath></defs><g clip-path="url(#d)"><path fill="#fff" d="M70.177.731c17.97 0 32.56 13.116 32.56 29.269s-14.59 29.269-32.56 29.269c-17.97 0-32.56-13.116-32.56-29.269S52.207.731 70.177.731z" style="-moz-user-select:none"/></g></svg><svg xmlns="http://www.w3.org/2000/svg" width="217" height="60" viewBox="0 0 217 60" style="width:100%;height:100%" x="868"><defs><clipPath id="e"><path d="M0 0h217v60H0z"/></clipPath></defs><g clip-path="url(#e)"><path fill="#fff" d="M86.15 1.481c19.418 0 35.184 12.78 35.184 28.519 0 15.74-15.766 28.519-35.184 28.519S50.966 45.739 50.966 30c0-15.74 15.766-28.519 35.184-28.519z" style="-moz-user-select:none"/></g></svg><svg xmlns="http://www.w3.org/2000/svg" width="217" height="60" viewBox="0 0 217 60" style="width:100%;height:100%" x="1085"><defs><clipPath id="f"><path d="M0 0h217v60H0z"/></clipPath></defs><g clip-path="url(#f)"><path fill="#fff" d="M99.558 2.231c20.867 0 37.81 12.443 37.81 27.769 0 15.326-16.943 27.769-37.81 27.769S61.748 45.326 61.748 30c0-15.326 16.943-27.769 37.81-27.769z" style="-moz-user-select:none"/></g></svg><svg xmlns="http://www.w3.org/2000/svg" width="217" height="60" viewBox="0 0 217 60" style="width:100%;height:100%" x="1302"><defs><clipPath id="g"><path d="M0 0h217v60H0z"/></clipPath></defs><g clip-path="url(#g)"><path fill="#fff" d="M110.818 2.981c22.316 0 40.434 12.107 40.434 27.019 0 14.912-18.118 27.019-40.434 27.019S70.384 44.912 70.384 30c0-14.912 18.118-27.019 40.434-27.019z" style="-moz-user-select:none"/></g></svg><svg xmlns="http://www.w3.org/2000/svg" width="217" height="60" viewBox="0 0 217 60" style="width:100%;height:100%" x="1519"><defs><clipPath id="h"><path d="M0 0h217v60H0z"/></clipPath></defs><g clip-path="url(#h)"><path fill="#fff" d="M120.393 3.731c23.765 0 43.06 11.771 43.06 26.269 0 14.498-19.295 26.269-43.06 26.269-23.764 0-43.06-11.771-43.06-26.269 0-14.498 19.296-26.269 43.06-26.269z" style="-moz-user-select:none"/></g></svg><svg xmlns="http://www.w3.org/2000/svg" width="217" height="60" viewBox="0 0 217 60" style="width:100%;height:100%" x="1736"><defs><clipPath id="i"><path d="M0 0h217v60H0z"/></clipPath></defs><g clip-path="url(#i)"><path fill="#fff" d="M128.635 4.481c25.213 0 45.685 11.435 45.685 25.519 0 14.084-20.472 25.519-45.685 25.519S82.951 44.084 82.951 30c0-14.084 20.471-25.519 45.684-25.519z" style="-moz-user-select:none"/></g></svg><svg xmlns="http://www.w3.org/2000/svg" width="217" height="60" viewBox="0 0 217 60" style="width:100%;height:100%" x="1953"><defs><clipPath id="j"><path d="M0 0h217v60H0z"/></clipPath></defs><g clip-path="url(#j)"><path fill="#fff" d="M135.8 5.231c26.663 0 48.31 11.1 48.31 24.769 0 13.67-21.647 24.769-48.31 24.769-26.661 0-48.309-11.1-48.309-24.769 0-13.67 21.648-24.769 48.31-24.769z" style="-moz-user-select:none"/></g></svg><svg xmlns="http://www.w3.org/2000/svg" width="217" height="60" viewBox="0 0 217 60" style="width:100%;height:100%" x="2170"><defs><clipPath id="k"><path d="M0 0h217v60H0z"/></clipPath></defs><g clip-path="url(#k)"><path fill="#fff" d="M142.078 5.981c28.11 0 50.934 10.763 50.934 24.019 0 13.256-22.823 24.019-50.934 24.019-28.11 0-50.934-10.763-50.934-24.019 0-13.256 22.823-24.019 50.934-24.019z" style="-moz-user-select:none"/></g></svg><svg xmlns="http://www.w3.org/2000/svg" width="217" height="60" viewBox="0 0 217 60" style="width:100%;height:100%" x="2387"><defs><clipPath id="l"><path d="M0 0h217v60H0z"/></clipPath></defs><g clip-path="url(#l)"><path fill="#fff" d="M147.609 5.161c26.527 0 48.064 11.13 48.064 24.839 0 13.708-21.537 24.839-48.064 24.839S99.544 43.709 99.544 30c0-13.708 21.538-24.839 48.065-24.839z" style="-moz-user-select:none"/></g></svg><svg xmlns="http://www.w3.org/2000/svg" width="217" height="60" viewBox="0 0 217 60" style="width:100%;height:100%" x="2604"><defs><clipPath id="m"><path d="M0 0h217v60H0z"/></clipPath></defs><g clip-path="url(#m)"><path fill="#fff" d="M152.502 4.301c24.865 0 45.054 11.516 45.054 25.699 0 14.183-20.189 25.699-45.054 25.699-24.865 0-45.054-11.516-45.054-25.699 0-14.183 20.189-25.699 45.054-25.699z" style="-moz-user-select:none"/></g></svg><svg xmlns="http://www.w3.org/2000/svg" width="217" height="60" viewBox="0 0 217 60" style="width:100%;height:100%" x="2821"><defs><clipPath id="n"><path d="M0 0h217v60H0z"/></clipPath></defs><g clip-path="url(#n)"><path fill="#fff" d="M156.842 3.44c23.204 0 42.043 11.902 42.043 26.56s-18.84 26.56-42.043 26.56S114.8 44.657 114.8 30s18.84-26.56 42.043-26.56z" style="-moz-user-select:none"/></g></svg><svg xmlns="http://www.w3.org/2000/svg" width="217" height="60" viewBox="0 0 217 60" style="width:100%;height:100%" x="3038"><defs><clipPath id="o"><path d="M0 0h217v60H0z"/></clipPath></defs><g clip-path="url(#o)"><path fill="#fff" d="M160.698 2.58c21.542 0 39.033 12.287 39.033 27.42 0 15.133-17.49 27.42-39.033 27.42-21.542 0-39.032-12.287-39.032-27.42 0-15.133 17.49-27.42 39.032-27.42z" style="-moz-user-select:none"/></g></svg><svg xmlns="http://www.w3.org/2000/svg" width="217" height="60" viewBox="0 0 217 60" style="width:100%;height:100%" x="3255"><defs><clipPath id="p"><path d="M0 0h217v60H0z"/></clipPath></defs><g clip-path="url(#p)"><path fill="#fff" d="M164.125 1.72c19.88 0 36.022 12.673 36.022 28.28 0 15.607-16.141 28.28-36.022 28.28-19.88 0-36.021-12.673-36.021-28.28 0-15.607 16.141-28.28 36.021-28.28z" style="-moz-user-select:none"/></g></svg><svg xmlns="http://www.w3.org/2000/svg" width="217" height="60" viewBox="0 0 217 60" style="width:100%;height:100%" x="3472"><defs><clipPath id="q"><path d="M0 0h217v60H0z"/></clipPath></defs><g clip-path="url(#q)"><path fill="#fff" d="M167.17.86c18.218 0 33.01 13.058 33.01 29.14s-14.792 29.14-33.01 29.14c-18.22 0-33.011-13.058-33.011-29.14S148.95.86 167.169.86z" style="-moz-user-select:none"/></g></svg><svg xmlns="http://www.w3.org/2000/svg" width="217" height="60" viewBox="0 0 217 60" style="width:100%;height:100%" x="3689"><defs><clipPath id="r"><path d="M0 0h217v60H0z"/></clipPath></defs><g clip-path="url(#r)"><path fill="#fff" d="M169.868 0c16.557 0 30 13.443 30 30 0 16.557-13.443 30-30 30-16.557 0-30-13.443-30-30 0-16.557 13.443-30 30-30z" style="-moz-user-select:none"/></g></svg><svg xmlns="http://www.w3.org/2000/svg" width="217" height="60" viewBox="0 0 217 60" style="width:100%;height:100%" x="3906"><defs><clipPath id="s"><path d="M0 0h217v60H0z"/></clipPath></defs><g clip-path="url(#s)"><path fill="#fff" d="M172.254 0c16.557 0 30 13.443 30 30 0 16.557-13.443 30-30 30-16.557 0-30-13.443-30-30 0-16.557 13.443-30 30-30z" style="-moz-user-select:none"/></g></svg><svg xmlns="http://www.w3.org/2000/svg" width="217" height="60" viewBox="0 0 217 60" style="width:100%;height:100%" x="4123"><defs><clipPath id="t"><path d="M0 0h217v60H0z"/></clipPath></defs><g clip-path="url(#t)"><path fill="#fff" d="M174.355 0c16.557 0 30 13.443 30 30 0 16.557-13.443 30-30 30-16.557 0-30-13.443-30-30 0-16.557 13.443-30 30-30z" style="-moz-user-select:none"/></g></svg><svg xmlns="http://www.w3.org/2000/svg" width="217" height="60" viewBox="0 0 217 60" style="width:100%;height:100%" x="4340"><defs><clipPath id="u"><path d="M0 0h217v60H0z"/></clipPath></defs><g clip-path="url(#u)"><path fill="#fff" d="M176.195 0c16.557 0 30 13.443 30 30 0 16.557-13.443 30-30 30-16.557 0-30-13.443-30-30 0-16.557 13.443-30 30-30z" style="-moz-user-select:none"/></g></svg><svg xmlns="http://www.w3.org/2000/svg" width="217" height="60" viewBox="0 0 217 60" style="width:100%;height:100%" x="4557"><defs><clipPath id="v"><path d="M0 0h217v60H0z"/></clipPath></defs><g clip-path="url(#v)"><path fill="#fff" d="M177.793 0c16.557 0 30 13.443 30 30 0 16.557-13.443 30-30 30-16.557 0-30-13.443-30-30 0-16.557 13.443-30 30-30z" style="-moz-user-select:none"/></g></svg><svg xmlns="http://www.w3.org/2000/svg" width="217" height="60" viewBox="0 0 217 60" style="width:100%;height:100%" x="4774"><defs><clipPath id="w"><path d="M0 0h217v60H0z"/></clipPath></defs><g clip-path="url(#w)"><path fill="#fff" d="M179.17 0c16.556 0 30 13.443 30 30 0 16.557-13.444 30-30 30-16.558 0-30-13.443-30-30 0-16.557 13.442-30 30-30z" style="-moz-user-select:none"/></g></svg><svg xmlns="http://www.w3.org/2000/svg" width="217" height="60" viewBox="0 0 217 60" style="width:100%;height:100%" x="4991"><defs><clipPath id="x"><path d="M0 0h217v60H0z"/></clipPath></defs><g clip-path="url(#x)"><path fill="#fff" d="M180.339 0c16.557 0 30 13.443 30 30 0 16.557-13.443 30-30 30-16.557 0-30-13.443-30-30 0-16.557 13.443-30 30-30z" style="-moz-user-select:none"/></g></svg><svg xmlns="http://www.w3.org/2000/svg" width="217" height="60" viewBox="0 0 217 60" style="width:100%;height:100%" x="5208"><defs><clipPath id="y"><path d="M0 0h217v60H0z"/></clipPath></defs><g clip-path="url(#y)"><path fill="#fff" d="M181.315 0c16.557 0 30 13.443 30 30 0 16.557-13.443 30-30 30-16.557 0-30-13.443-30-30 0-16.557 13.443-30 30-30z" style="-moz-user-select:none"/></g></svg><svg xmlns="http://www.w3.org/2000/svg" width="217" height="60" viewBox="0 0 217 60" style="width:100%;height:100%" x="5425"><defs><clipPath id="z"><path d="M0 0h217v60H0z"/></clipPath></defs><g clip-path="url(#z)"><path fill="#fff" d="M182.112 0c16.557 0 30 13.443 30 30 0 16.557-13.443 30-30 30-16.557 0-30-13.443-30-30 0-16.557 13.443-30 30-30z" style="-moz-user-select:none"/></g></svg><svg xmlns="http://www.w3.org/2000/svg" width="217" height="60" viewBox="0 0 217 60" style="width:100%;height:100%" x="5642"><defs><clipPath id="A"><path d="M0 0h217v60H0z"/></clipPath></defs><g clip-path="url(#A)"><path fill="#fff" d="M182.74 0c16.556 0 30 13.443 30 30 0 16.557-13.444 30-30 30-16.558 0-30-13.443-30-30 0-16.557 13.442-30 30-30z" style="-moz-user-select:none"/></g></svg><svg xmlns="http://www.w3.org/2000/svg" width="217" height="60" viewBox="0 0 217 60" style="width:100%;height:100%" x="5859"><defs><clipPath id="B"><path d="M0 0h217v60H0z"/></clipPath></defs><g clip-path="url(#B)"><path fill="#fff" d="M183.208 0c16.557 0 30 13.443 30 30 0 16.557-13.443 30-30 30-16.557 0-30-13.443-30-30 0-16.557 13.443-30 30-30z" style="-moz-user-select:none"/></g></svg><svg xmlns="http://www.w3.org/2000/svg" width="217" height="60" viewBox="0 0 217 60" style="width:100%;height:100%" x="6076"><defs><clipPath id="C"><path d="M0 0h217v60H0z"/></clipPath></defs><g clip-path="url(#C)"><path fill="#fff" d="M183.527 0c16.557 0 30 13.443 30 30 0 16.557-13.443 30-30 30-16.557 0-30-13.443-30-30 0-16.557 13.443-30 30-30z" style="-moz-user-select:none"/></g></svg><svg xmlns="http://www.w3.org/2000/svg" width="217" height="60" viewBox="0 0 217 60" style="width:100%;height:100%" x="6293"><defs><clipPath id="D"><path d="M0 0h217v60H0z"/></clipPath></defs><g clip-path="url(#D)"><path fill="#fff" d="M183.705 0c16.557 0 30 13.443 30 30 0 16.557-13.443 30-30 30-16.557 0-30-13.443-30-30 0-16.557 13.443-30 30-30z" style="-moz-user-select:none"/></g></svg><svg xmlns="http://www.w3.org/2000/svg" width="217" height="60" viewBox="0 0 217 60" style="width:100%;height:100%" x="6510"><defs><clipPath id="E"><path d="M0 0h217v60H0z"/></clipPath></defs><g clip-path="url(#E)"><path fill="#fff" d="M183.747 0c16.557 0 30 13.443 30 30 0 16.557-13.443 30-30 30-16.557 0-30-13.443-30-30 0-16.557 13.443-30 30-30z" style="-moz-user-select:none"/></g></svg><svg xmlns="http://www.w3.org/2000/svg" width="217" height="60" viewBox="0 0 217 60" style="width:100%;height:100%" x="6727"><defs><clipPath id="F"><path d="M0 0h217v60H0z"/></clipPath></defs><g clip-path="url(#F)"><path fill="#fff" d="M182.216 0c16.557 0 30 13.443 30 30 0 16.557-13.443 30-30 30-16.557 0-30-13.443-30-30 0-16.557 13.443-30 30-30z" style="-moz-user-select:none"/></g></svg><svg xmlns="http://www.w3.org/2000/svg" width="217" height="60" viewBox="0 0 217 60" style="width:100%;height:100%" x="6944"><defs><clipPath id="G"><path d="M0 0h217v60H0z"/></clipPath></defs><g clip-path="url(#G)"><path fill="#fff" d="M176.537 0c16.557 0 30 13.443 30 30 0 16.557-13.443 30-30 30-16.557 0-30-13.443-30-30 0-16.557 13.443-30 30-30z" style="-moz-user-select:none"/></g></svg><svg xmlns="http://www.w3.org/2000/svg" width="217" height="60" viewBox="0 0 217 60" style="width:100%;height:100%" x="7161"><defs><clipPath id="H"><path d="M0 0h217v60H0z"/></clipPath></defs><g clip-path="url(#H)"><path fill="#fff" d="M163.98.734c17.57 0 31.834 13.114 31.834 29.266 0 16.152-14.265 29.266-31.834 29.266S132.146 46.152 132.146 30c0-16.152 14.265-29.266 31.834-29.266z" style="-moz-user-select:none"/></g></svg><svg xmlns="http://www.w3.org/2000/svg" width="217" height="60" viewBox="0 0 217 60" style="width:100%;height:100%" x="7378"><defs><clipPath id="I"><path d="M0 0h217v60H0z"/></clipPath></defs><g clip-path="url(#I)"><path fill="#fff" d="M144.911 1.486c18.608 0 33.715 12.777 33.715 28.514s-15.107 28.514-33.715 28.514c-18.607 0-33.714-12.777-33.714-28.514S126.304 1.486 144.91 1.486z" style="-moz-user-select:none"/></g></svg><svg xmlns="http://www.w3.org/2000/svg" width="217" height="60" viewBox="0 0 217 60" style="width:100%;height:100%" x="7595"><defs><clipPath id="J"><path d="M0 0h217v60H0z"/></clipPath></defs><g clip-path="url(#J)"><path fill="#fff" d="M126.178 2.238c19.645 0 35.596 12.44 35.596 27.762 0 15.322-15.95 27.762-35.596 27.762-19.645 0-35.595-12.44-35.595-27.762 0-15.322 15.95-27.762 35.595-27.762z" style="-moz-user-select:none"/></g></svg><svg xmlns="http://www.w3.org/2000/svg" width="217" height="60" viewBox="0 0 217 60" style="width:100%;height:100%" x="7812"><defs><clipPath id="K"><path d="M0 0h217v60H0z"/></clipPath></defs><g clip-path="url(#K)"><path fill="#fff" d="M111.054 2.99c20.683 0 37.477 12.104 37.477 27.01 0 14.906-16.794 27.01-37.477 27.01-20.683 0-37.476-12.104-37.476-27.01 0-14.906 16.793-27.01 37.476-27.01z" style="-moz-user-select:none"/></g></svg><svg xmlns="http://www.w3.org/2000/svg" width="217" height="60" viewBox="0 0 217 60" style="width:100%;height:100%" x="8029"><defs><clipPath id="L"><path d="M0 0h217v60H0z"/></clipPath></defs><g clip-path="url(#L)"><path fill="#fff" d="M99.048 3.743c21.721 0 39.357 11.766 39.357 26.257 0 14.491-17.636 26.257-39.357 26.257S59.691 44.491 59.691 30c0-14.491 17.636-26.257 39.357-26.257z" style="-moz-user-select:none"/></g></svg><svg xmlns="http://www.w3.org/2000/svg" width="217" height="60" viewBox="0 0 217 60" style="width:100%;height:100%" x="8246"><defs><clipPath id="M"><path d="M0 0h217v60H0z"/></clipPath></defs><g clip-path="url(#M)"><path fill="#fff" d="M89.308 4.495c22.76 0 41.238 11.429 41.238 25.505 0 14.076-18.479 25.505-41.238 25.505-22.76 0-41.238-11.429-41.238-25.505 0-14.076 18.479-25.505 41.238-25.505z" style="-moz-user-select:none"/></g></svg><svg xmlns="http://www.w3.org/2000/svg" width="217" height="60" viewBox="0 0 217 60" style="width:100%;height:100%" x="8463"><defs><clipPath id="N"><path d="M0 0h217v60H0z"/></clipPath></defs><g clip-path="url(#N)"><path fill="#fff" d="M81.23 5.248c23.797 0 43.118 11.091 43.118 24.752 0 13.66-19.321 24.752-43.119 24.752C57.432 54.752 38.11 43.661 38.11 30c0-13.66 19.322-24.752 43.12-24.752z" style="-moz-user-select:none"/></g></svg><svg xmlns="http://www.w3.org/2000/svg" width="217" height="60" viewBox="0 0 217 60" style="width:100%;height:100%" x="8680"><defs><clipPath id="O"><path d="M0 0h217v60H0z"/></clipPath></defs><g clip-path="url(#O)"><path fill="#fff" d="M74.41 6c24.836 0 45 10.754 45 24s-20.164 24-45 24c-24.835 0-45-10.754-45-24s20.165-24 45-24z" style="-moz-user-select:none"/></g></svg><svg xmlns="http://www.w3.org/2000/svg" width="217" height="60" viewBox="0 0 217 60" style="width:100%;height:100%" x="8897"><defs><clipPath id="P"><path d="M0 0h217v60H0z"/></clipPath></defs><g clip-path="url(#P)"><path fill="#fff" d="M68.58 5.143c23.653 0 42.858 11.138 42.858 24.857S92.233 54.857 68.58 54.857C44.928 54.857 25.723 43.72 25.723 30S44.928 5.143 68.581 5.143z" style="-moz-user-select:none"/></g></svg><svg xmlns="http://www.w3.org/2000/svg" width="217" height="60" viewBox="0 0 217 60" style="width:100%;height:100%" x="9114"><defs><clipPath id="Q"><path d="M0 0h217v60H0z"/></clipPath></defs><g clip-path="url(#Q)"><path fill="#fff" d="M63.549 4.286c22.47 0 40.714 11.522 40.714 25.714 0 14.192-18.244 25.714-40.714 25.714S22.834 44.192 22.834 30c0-14.192 18.244-25.714 40.715-25.714z" style="-moz-user-select:none"/></g></svg><svg xmlns="http://www.w3.org/2000/svg" width="217" height="60" viewBox="0 0 217 60" style="width:100%;height:100%" x="9331"><defs><clipPath id="R"><path d="M0 0h217v60H0z"/></clipPath></defs><g clip-path="url(#R)"><path fill="#fff" d="M59.176 3.429c21.287 0 38.571 11.906 38.571 26.571 0 14.665-17.284 26.571-38.571 26.571-21.288 0-38.572-11.906-38.572-26.571 0-14.665 17.284-26.571 38.572-26.571z" style="-moz-user-select:none"/></g></svg><svg xmlns="http://www.w3.org/2000/svg" width="217" height="60" viewBox="0 0 217 60" style="width:100%;height:100%" x="9548"><defs><clipPath id="S"><path d="M0 0h217v60H0z"/></clipPath></defs><g clip-path="url(#S)"><path fill="#fff" d="M55.358 2.571c20.105 0 36.429 12.291 36.429 27.429 0 15.138-16.324 27.429-36.429 27.429S18.93 45.138 18.93 30c0-15.138 16.323-27.429 36.428-27.429z" style="-moz-user-select:none"/></g></svg><svg xmlns="http://www.w3.org/2000/svg" width="217" height="60" viewBox="0 0 217 60" style="width:100%;height:100%" x="9765"><defs><clipPath id="T"><path d="M0 0h217v60H0z"/></clipPath></defs><g clip-path="url(#T)"><path fill="#fff" d="M52.016 1.714C70.938 1.714 86.302 14.39 86.302 30c0 15.61-15.364 28.286-34.286 28.286S17.73 45.61 17.73 30c0-15.61 15.364-28.286 34.286-28.286z" style="-moz-user-select:none"/></g></svg><svg xmlns="http://www.w3.org/2000/svg" width="217" height="60" viewBox="0 0 217 60" style="width:100%;height:100%" x="9982"><defs><clipPath id="U"><path d="M0 0h217v60H0z"/></clipPath></defs><g clip-path="url(#U)"><path fill="#fff" d="M49.086.857c17.74 0 32.143 13.06 32.143 29.143 0 16.084-14.403 29.143-32.143 29.143-17.74 0-32.143-13.06-32.143-29.143C16.943 13.916 31.346.857 49.086.857z" style="-moz-user-select:none"/></g></svg><svg xmlns="http://www.w3.org/2000/svg" width="217" height="60" viewBox="0 0 217 60" style="width:100%;height:100%" x="10199"><defs><clipPath id="V"><path d="M0 0h217v60H0z"/></clipPath></defs><g clip-path="url(#V)"><path fill="#fff" d="M46.518 0c16.557 0 30 13.443 30 30 0 16.557-13.443 30-30 30-16.557 0-30-13.443-30-30 0-16.557 13.443-30 30-30z" style="-moz-user-select:none"/></g></svg><svg xmlns="http://www.w3.org/2000/svg" width="217" height="60" viewBox="0 0 217 60" style="width:100%;height:100%" x="10416"><defs><clipPath id="W"><path d="M0 0h217v60H0z"/></clipPath></defs><g clip-path="url(#W)"><path fill="#fff" d="M44.27 0c16.557 0 30 13.443 30 30 0 16.557-13.443 30-30 30-16.557 0-30-13.443-30-30 0-16.557 13.443-30 30-30z" style="-moz-user-select:none"/></g></svg><svg xmlns="http://www.w3.org/2000/svg" width="217" height="60" viewBox="0 0 217 60" style="width:100%;height:100%" x="10633"><defs><clipPath id="X"><path d="M0 0h217v60H0z"/></clipPath></defs><g clip-path="url(#X)"><path fill="#fff" d="M42.308 0c16.557 0 30 13.443 30 30 0 16.557-13.443 30-30 30-16.557 0-30-13.443-30-30 0-16.557 13.443-30 30-30z" style="-moz-user-select:none"/></g></svg><svg xmlns="http://www.w3.org/2000/svg" width="217" height="60" viewBox="0 0 217 60" style="width:100%;height:100%" x="10850"><defs><clipPath id="Y"><path d="M0 0h217v60H0z"/></clipPath></defs><g clip-path="url(#Y)"><path fill="#fff" d="M40.604 0c16.557 0 30 13.443 30 30 0 16.557-13.443 30-30 30-16.557 0-30-13.443-30-30 0-16.557 13.443-30 30-30z" style="-moz-user-select:none"/></g></svg><svg xmlns="http://www.w3.org/2000/svg" width="217" height="60" viewBox="0 0 217 60" style="width:100%;height:100%" x="11067"><defs><clipPath id="Z"><path d="M0 0h217v60H0z"/></clipPath></defs><g clip-path="url(#Z)"><path fill="#fff" d="M39.134 0c16.557 0 30 13.443 30 30 0 16.557-13.443 30-30 30-16.557 0-30-13.443-30-30 0-16.557 13.443-30 30-30z" style="-moz-user-select:none"/></g></svg><svg xmlns="http://www.w3.org/2000/svg" width="217" height="60" viewBox="0 0 217 60" style="width:100%;height:100%" x="11284"><defs><clipPath id="aa"><path d="M0 0h217v60H0z"/></clipPath></defs><g clip-path="url(#aa)"><path fill="#fff" d="M37.877 0c16.557 0 30 13.443 30 30 0 16.557-13.443 30-30 30-16.557 0-30-13.443-30-30 0-16.557 13.443-30 30-30z" style="-moz-user-select:none"/></g></svg><svg xmlns="http://www.w3.org/2000/svg" width="217" height="60" viewBox="0 0 217 60" style="width:100%;height:100%" x="11501"><defs><clipPath id="ab"><path d="M0 0h217v60H0z"/></clipPath></defs><g clip-path="url(#ab)"><path fill="#fff" d="M36.816 0c16.557 0 30 13.443 30 30 0 16.557-13.443 30-30 30-16.557 0-30-13.443-30-30 0-16.557 13.443-30 30-30z" style="-moz-user-select:none"/></g></svg><svg xmlns="http://www.w3.org/2000/svg" width="217" height="60" viewBox="0 0 217 60" style="width:100%;height:100%" x="11718"><defs><clipPath id="ac"><path d="M0 0h217v60H0z"/></clipPath></defs><g clip-path="url(#ac)"><path fill="#fff" d="M35.933 0c16.557 0 30 13.443 30 30 0 16.557-13.443 30-30 30-16.557 0-30-13.443-30-30 0-16.557 13.443-30 30-30z" style="-moz-user-select:none"/></g></svg><svg xmlns="http://www.w3.org/2000/svg" width="217" height="60" viewBox="0 0 217 60" style="width:100%;height:100%" x="11935"><defs><clipPath id="ad"><path d="M0 0h217v60H0z"/></clipPath></defs><g clip-path="url(#ad)"><path fill="#fff" d="M35.217 0c16.557 0 30 13.443 30 30 0 16.557-13.443 30-30 30-16.557 0-30-13.443-30-30 0-16.557 13.443-30 30-30z" style="-moz-user-select:none"/></g></svg><svg xmlns="http://www.w3.org/2000/svg" width="217" height="60" viewBox="0 0 217 60" style="width:100%;height:100%" x="12152"><defs><clipPath id="ae"><path d="M0 0h217v60H0z"/></clipPath></defs><g clip-path="url(#ae)"><path fill="#fff" d="M34.655 0c16.557 0 30 13.443 30 30 0 16.557-13.443 30-30 30-16.557 0-30-13.443-30-30 0-16.557 13.443-30 30-30z" style="-moz-user-select:none"/></g></svg><svg xmlns="http://www.w3.org/2000/svg" width="217" height="60" viewBox="0 0 217 60" style="width:100%;height:100%" x="12369"><defs><clipPath id="af"><path d="M0 0h217v60H0z"/></clipPath></defs><g clip-path="url(#af)"><path fill="#fff" d="M34.236 0c16.557 0 30 13.443 30 30 0 16.557-13.443 30-30 30-16.557 0-30-13.443-30-30 0-16.557 13.443-30 30-30z" style="-moz-user-select:none"/></g></svg><svg xmlns="http://www.w3.org/2000/svg" width="217" height="60" viewBox="0 0 217 60" style="width:100%;height:100%" x="12586"><defs><clipPath id="ag"><path d="M0 0h217v60H0z"/></clipPath></defs><g clip-path="url(#ag)"><path fill="#fff" d="M33.951 0c16.557 0 30 13.443 30 30 0 16.557-13.443 30-30 30-16.557 0-30-13.443-30-30 0-16.557 13.443-30 30-30z" style="-moz-user-select:none"/></g></svg><svg xmlns="http://www.w3.org/2000/svg" width="217" height="60" viewBox="0 0 217 60" style="width:100%;height:100%" x="12803"><defs><clipPath id="ah"><path d="M0 0h217v60H0z"/></clipPath></defs><g clip-path="url(#ah)"><path fill="#fff" d="M33.792 0c16.557 0 30 13.443 30 30 0 16.557-13.443 30-30 30-16.557 0-30-13.443-30-30 0-16.557 13.443-30 30-30z" style="-moz-user-select:none"/></g></svg><svg xmlns="http://www.w3.org/2000/svg" width="217" height="60" viewBox="0 0 217 60" style="width:100%;height:100%" x="13020"><defs><clipPath id="ai"><path d="M0 0h217v60H0z"/></clipPath></defs><g clip-path="url(#ai)"><path fill="#fff" d="M33.75 0c16.557 0 30 13.443 30 30 0 16.557-13.443 30-30 30-16.557 0-30-13.443-30-30 0-16.557 13.443-30 30-30z" style="-moz-user-select:none"/></g></svg></svg>
