<svg width="50" height="50" viewBox="0 0 50 50" xmlns="http://www.w3.org/2000/svg"><title>logo_twitter</title><g fill="none" fill-rule="evenodd"><path fill="#1DA1F2" d="M0 50h50V0H0z"/><path d="M19.039 37.903c11.717 0 18.124-9.772 18.124-18.246 0-.278-.006-.554-.018-.83a13.008 13.008 0 0 0 3.178-3.32c-1.142.51-2.37.855-3.659 1.01a6.428 6.428 0 0 0 2.802-3.547 12.712 12.712 0 0 1-4.045 1.556 6.344 6.344 0 0 0-4.65-2.026c-3.518 0-6.371 2.872-6.371 6.413 0 .503.056.992.165 1.462-5.294-.268-9.988-2.82-13.13-6.7a6.424 6.424 0 0 0-.862 3.223 6.42 6.42 0 0 0 2.834 5.338 6.29 6.29 0 0 1-2.885-.803l-.001.082c0 3.106 2.196 5.7 5.11 6.287a6.349 6.349 0 0 1-2.876.11c.81 2.548 3.162 4.402 5.95 4.454a12.728 12.728 0 0 1-7.911 2.746c-.514 0-1.021-.03-1.52-.09a17.946 17.946 0 0 0 9.765 2.881" fill="#FFF"/></g></svg>