<svg width="50" height="50" viewBox="0 0 50 50" xmlns="http://www.w3.org/2000/svg"><title>logo_mail</title><g fill="none" fill-rule="evenodd"><path d="M47.222 49.98a2.759 2.759 0 0 0 2.758-2.758V2.759A2.759 2.759 0 0 0 47.222 0H2.758A2.758 2.758 0 0 0 0 2.759v44.463a2.758 2.758 0 0 0 2.758 2.758h44.464z" fill="#3C5A99"/><g fill="#FFF"><path d="M38.37 30.609a2.158 2.158 0 0 1-2.153 2.152h-21.52a2.158 2.158 0 0 1-2.152-2.152V17.697c0-1.184.968-2.152 2.152-2.152h21.52c1.184 0 2.152.968 2.152 2.152v12.912zM35.321 12H15.085C11.738 12 9 14.738 9 18.085v12.136c0 3.346 2.738 6.085 6.085 6.085h20.237c3.347 0 6.085-2.739 6.085-6.085V18.085c0-3.347-2.738-6.085-6.085-6.085z"/><path d="M24.824 25.381l-11.836-8.608a1.075 1.075 0 1 1 1.265-1.74l11.204 8.148 11.204-8.148a1.076 1.076 0 0 1 1.265 1.74L26.09 25.38a1.071 1.071 0 0 1-1.266 0z"/></g></g></svg>