<svg width="50px" height="50px" viewBox="0 0 50 50" version="1.1" xmlns="http://www.w3.org/2000/svg" xmlns:xlink="http://www.w3.org/1999/xlink">
  <!-- Generator: Sketch 47.1 (45422) - http://www.bohemiancoding.com/sketch -->
  <title>logo_mail</title>
  <desc>Created with Sketch.</desc>
  <defs></defs>
  <g id="Component_20170927" stroke="none" stroke-width="1" fill="none" fill-rule="evenodd">
    <g id="Modal" transform="translate(-510.000000, -3180.000000)">
      <g id="Group-5-Copy-2" transform="translate(145.000000, 3092.000000)">
        <g id="part5" transform="translate(90.000000, 50.000000)">
          <g id="logo_mail" transform="translate(275.000000, 38.000000)">
            <path d="M47.2215356,49.9803371 C48.7447566,49.9803371 49.9799625,48.7451311 49.9799625,47.2219101 L49.9799625,2.75861423 C49.9799625,1.23483146 48.7447566,0 47.2215356,0 L2.75842697,0 C1.23464419,0 0,1.23483146 0,2.75861423 L0,47.2219101 C0,48.7451311 1.23464419,49.9803371 2.75842697,49.9803371 L47.2215356,49.9803371 Z" id="Fill-1-Copy" fill="#3C5A99"></path>
            <g id="Group-13" transform="translate(9.000000, 12.000000)" fill="#FFFFFF">
              <path d="M29.369213,18.608941 C29.369213,19.7925709 28.4007885,20.7609954 27.2171586,20.7609954 L5.69661458,20.7609954 C4.51298466,20.7609954 3.54456019,19.7925709 3.54456019,18.608941 L3.54456019,5.69661458 C3.54456019,4.51298466 4.51298466,3.54456019 5.69661458,3.54456019 L27.2171586,3.54456019 C28.4007885,3.54456019 29.369213,4.51298466 29.369213,5.69661458 L29.369213,18.608941 Z M26.3224103,0 L6.08499711,0 C2.73842593,0 0,2.73842593 0,6.08499711 L0,18.2205584 C0,21.5671296 2.73842593,24.3055556 6.08499711,24.3055556 L26.3224103,24.3055556 C29.6694878,24.3055556 32.4074074,21.5671296 32.4074074,18.2205584 L32.4074074,6.08499711 C32.4074074,2.73842593 29.6694878,0 26.3224103,0 L26.3224103,0 Z" id="Fill-1"></path>
              <path d="M15.8241726,13.3812302 L3.98768573,4.77287614 C3.50669395,4.4242378 3.40124161,3.75063409 3.75041797,3.27018033 C4.1012084,2.78811251 4.77373606,2.68481226 5.25311377,3.03291257 L16.4568866,11.1807197 L27.6606594,3.03291257 C28.137885,2.68481226 28.8147168,2.78811251 29.1633552,3.27018033 C29.5125315,3.75063409 29.4070792,4.4242378 28.9260874,4.77287614 L17.0896006,13.3812302 C16.9002168,13.5189639 16.6796277,13.5872927 16.4568866,13.5872927 C16.2341454,13.5872927 16.0135563,13.5189639 15.8241726,13.3812302 Z" id="Fill-3"></path>
            </g>
          </g>
        </g>
      </g>
    </g>
  </g>
</svg>
