<svg width="50" height="51" viewBox="0 0 50 51" xmlns="http://www.w3.org/2000/svg" xmlns:xlink="http://www.w3.org/1999/xlink"><title>logo_fb</title><defs><path id="a" d="M24.99 50h24.99V.02H0V50h24.99z"/></defs><g fill="none" fill-rule="evenodd"><g transform="translate(0 .168)"><mask id="b" fill="#fff"><use xlink:href="#a"/></mask><path d="M47.222 49.98a2.759 2.759 0 0 0 2.758-2.758V2.759A2.759 2.759 0 0 0 47.222 0H2.758A2.758 2.758 0 0 0 0 2.759v44.463a2.758 2.758 0 0 0 2.758 2.758h44.464z" fill="#3C5A99" mask="url(#b)"/></g><path d="M34.485 50.168V30.813h6.497l.973-7.543h-7.47v-4.816c0-2.184.607-3.672 3.738-3.672l3.995-.002V8.033c-.691-.091-3.062-.297-5.82-.297-5.76 0-9.702 3.515-9.702 9.97v5.564h-6.513v7.543h6.513v19.355h7.79z" fill="#FEFEFE"/></g></svg>