<svg width="12" height="12" viewBox="0 0 12 12" xmlns="http://www.w3.org/2000/svg"><title>icon_launched</title><path d="M1.1 4.372zm9.8 0l-.002.001h.002zm.301.909h.007-.007zm-8.474 6.715a.7.7 0 0 1-.693-.8l.485-3.469L.188 5.221a.7.7 0 0 1 .389-1.167l3.26-.582L5.372.389A.698.698 0 0 1 6 0a.7.7 0 0 1 .628.389l1.535 3.083 3.259.582a.7.7 0 0 1 .39 1.168l-2.33 2.505.485 3.47a.698.698 0 0 1-.29.67.695.695 0 0 1-.729.048L6 10.38 3.05 11.915a.697.697 0 0 1-.324.08z" fill="#fff" fill-rule="evenodd"/></svg>
