<svg id="Layer_1" data-name="Layer 1" xmlns="http://www.w3.org/2000/svg" viewBox="0 0 64 56.1"><defs><style>.cls-1{fill:#fff}</style></defs><title>testpilot</title><path class="cls-1" d="M59.87 28.67a7.05 7.05 0 0 1 3.82 5.21c.37 3.33-1.91 7.55-6.05 11.42 1.93 5.93 4.12 14.7.13 14.7-2.9 0-6.73-4.21-9.7-8.33a43.76 43.76 0 0 1-14.16 4.13 43.46 43.46 0 0 1-19.58-2.36C11.6 56.93 8.42 60 5.93 60c-3.33 0-2.35-6.16-.82-11.65a12.32 12.32 0 0 1-5-7.51c-.5-4.54 4.21-8.29 11.78-11C12.22 19.78 17.43 4 32 4a17.49 17.49 0 0 1 15.49 9.42A98.28 98.28 0 0 1 62 12c2 0 2 0 2 2a48.4 48.4 0 0 1-4.13 14.67zM32 9.76c-8.86 0-12 8.21-13.75 18.63C17.62 32 15.94 36 28 36c14 0 18-6.45 17.75-7.73C44 18.76 40.79 9.76 32 9.76z" transform="translate(-.03 -3.95)" id="Ellipse_1_copy" data-name="Ellipse 1 copy"/></svg>