<svg xmlns="http://www.w3.org/2000/svg" viewBox="0 0 24 24"><defs><style>.cls-1{fill:#fff;fill-rule:evenodd;}</style></defs><title>twitter-icon</title><g id="Layer_2" data-name="Layer 2"><g id="Layer_1-2" data-name="Layer 1"><path class="cls-1" d="M21.75,0H2.25A2.25,2.25,0,0,0,0,2.25v19.5A2.25,2.25,0,0,0,2.25,24h19.5A2.25,2.25,0,0,0,24,21.75V2.25A2.25,2.25,0,0,0,21.75,0ZM18,8.94c0,.13,0,.26,0,.4A8.75,8.75,0,0,1,4.5,16.71a6.26,6.26,0,0,0,.73,0,6.18,6.18,0,0,0,3.82-1.32A3.08,3.08,0,0,1,6.18,13.3a3.07,3.07,0,0,0,.58.06,2.71,2.71,0,0,0,.76-.11,3.12,3.12,0,0,1-2.52-3v0c0,.23.94.37,1.45.38a3.07,3.07,0,0,1-.91-4.11,8.75,8.75,0,0,0,6.35,3.22,3.08,3.08,0,0,1,5.25-2.81,6.17,6.17,0,0,0,2-.75,3.09,3.09,0,0,1-1.35,1.7,6.14,6.14,0,0,0,1.77-.48A6.26,6.26,0,0,1,18,8.94Z"/></g></g></svg>