<svg width="96" height="24" viewBox="0 0 96 24" xmlns="http://www.w3.org/2000/svg" xmlns:xlink="http://www.w3.org/1999/xlink"><title>checks</title><defs><rect id="a" x="2" y="2" width="20" height="20" rx="2"/><rect id="b" x="26" y="2" width="20" height="20" rx="2"/><rect id="c" x="50" y="2" width="20" height="20" rx="2"/><rect id="d" x="74" y="2" width="20" height="20" rx="2"/></defs><g fill="none"><use fill="#FFF" fill-rule="evenodd" xlink:href="#a"/><rect stroke="#C1C1C1" stroke-width="2" x="1" y="1" width="22" height="22" rx="2"/><use fill="#FFF" fill-rule="evenodd" xlink:href="#b"/><rect stroke="#0A84FF" stroke-width="2" x="25" y="1" width="22" height="22" rx="2"/><use fill="#FFF" fill-rule="evenodd" xlink:href="#c"/><rect stroke="#C1C1C1" stroke-width="2" x="49" y="1" width="22" height="22" rx="2"/><use fill="#FFF" fill-rule="evenodd" xlink:href="#d"/><rect stroke="#0A84FF" stroke-width="2" x="73" y="1" width="22" height="22" rx="2"/><path d="M54.94 11.99a1.1 1.1 0 1 0-1.645 1.462l4.4 4.95a1.1 1.1 0 0 0 1.737-.12l7.7-11.55a1.1 1.1 0 1 0-1.83-1.22l-6.91 10.363-3.453-3.885zm24 0a1.1 1.1 0 1 0-1.645 1.462l4.4 4.95a1.1 1.1 0 0 0 1.737-.12l7.7-11.55a1.1 1.1 0 1 0-1.83-1.22l-6.91 10.363-3.453-3.885z" fill="#0A84FF"/></g></svg>