<svg xmlns="http://www.w3.org/2000/svg" width="32" height="32" viewBox="0 0 32 32"><path fill="context-fill" fill-opacity="context-fill-opacity" d="M29.924 14.338a3.52 3.52 0 0 1 1.909 2.6c.183 1.66-.954 3.768-3.02 5.7.96 2.962 2.054 7.362.062 7.362-1.449 0-3.36-2.1-4.841-4.158a21.843 21.843 0 0 1-7.069 2.037A21.694 21.694 0 0 1 7.194 26.7C5.832 28.446 4.245 30 3 30c-1.664 0-1.173-3.076-.407-5.816a6.147 6.147 0 0 1-2.52-3.748c-.249-2.264 2.1-4.138 5.878-5.493C6.143 9.9 8.743 2 16 2a8.73 8.73 0 0 1 7.733 4.7A49.053 49.053 0 0 1 31 6c1 0 1 0 1 1a24.16 24.16 0 0 1-2.076 7.338zM16 4.9c-4.423 0-6 4.1-6.865 9.3C8.838 15.981 8 18 14 18c7 0 8.974-3.218 8.859-3.856C22 9.392 20.4 4.9 16 4.9z"/></svg>
